%TF.GenerationSoftware,KiCad,Pcbnew,9.0.2*%
%TF.CreationDate,2025-05-30T03:52:38+02:00*%
%TF.ProjectId,Clock10,436c6f63-6b31-4302-9e6b-696361645f70,rev?*%
%TF.SameCoordinates,Original*%
%TF.FileFunction,Copper,L2,Bot*%
%TF.FilePolarity,Positive*%
%FSLAX46Y46*%
G04 Gerber Fmt 4.6, Leading zero omitted, Abs format (unit mm)*
G04 Created by KiCad (PCBNEW 9.0.2) date 2025-05-30 03:52:38*
%MOMM*%
%LPD*%
G01*
G04 APERTURE LIST*
G04 Aperture macros list*
%AMOutline5P*
0 Free polygon, 5 corners , with rotation*
0 The origin of the aperture is its center*
0 number of corners: always 5*
0 $1 to $10 corner X, Y*
0 $11 Rotation angle, in degrees counterclockwise*
0 create outline with 5 corners*
4,1,5,$1,$2,$3,$4,$5,$6,$7,$8,$9,$10,$1,$2,$11*%
%AMOutline6P*
0 Free polygon, 6 corners , with rotation*
0 The origin of the aperture is its center*
0 number of corners: always 6*
0 $1 to $12 corner X, Y*
0 $13 Rotation angle, in degrees counterclockwise*
0 create outline with 6 corners*
4,1,6,$1,$2,$3,$4,$5,$6,$7,$8,$9,$10,$11,$12,$1,$2,$13*%
%AMOutline7P*
0 Free polygon, 7 corners , with rotation*
0 The origin of the aperture is its center*
0 number of corners: always 7*
0 $1 to $14 corner X, Y*
0 $15 Rotation angle, in degrees counterclockwise*
0 create outline with 7 corners*
4,1,7,$1,$2,$3,$4,$5,$6,$7,$8,$9,$10,$11,$12,$13,$14,$1,$2,$15*%
%AMOutline8P*
0 Free polygon, 8 corners , with rotation*
0 The origin of the aperture is its center*
0 number of corners: always 8*
0 $1 to $16 corner X, Y*
0 $17 Rotation angle, in degrees counterclockwise*
0 create outline with 8 corners*
4,1,8,$1,$2,$3,$4,$5,$6,$7,$8,$9,$10,$11,$12,$13,$14,$15,$16,$1,$2,$17*%
G04 Aperture macros list end*
%TA.AperFunction,SMDPad,CuDef*%
%ADD10Outline5P,-1.000000X1.000000X0.600000X1.000000X1.000000X0.600000X1.000000X-1.000000X-1.000000X-1.000000X180.000000*%
%TD*%
%TA.AperFunction,SMDPad,CuDef*%
%ADD11Outline6P,-1.000000X0.600000X-0.600000X1.000000X1.000000X1.000000X1.000000X-0.600000X0.600000X-1.000000X-1.000000X-1.000000X180.000000*%
%TD*%
%TA.AperFunction,SMDPad,CuDef*%
%ADD12C,8.000000*%
%TD*%
%TA.AperFunction,SMDPad,CuDef*%
%ADD13R,2.600000X7.600000*%
%TD*%
%TA.AperFunction,SMDPad,CuDef*%
%ADD14R,1.500000X1.500000*%
%TD*%
%TA.AperFunction,SMDPad,CuDef*%
%ADD15R,2.000000X2.000000*%
%TD*%
%TA.AperFunction,ViaPad*%
%ADD16C,0.600000*%
%TD*%
%TA.AperFunction,Conductor*%
%ADD17C,0.200000*%
%TD*%
G04 APERTURE END LIST*
D10*
%TO.P,S3,1,In*%
%TO.N,Net-(S3-In)*%
X111220000Y-91550000D03*
%TD*%
D11*
%TO.P,GS1,1,In*%
%TO.N,GND*%
X88510000Y-91810000D03*
%TD*%
D12*
%TO.P,BT1,2,-*%
%TO.N,GND*%
X100000000Y-100000000D03*
D13*
%TO.P,BT1,1,+*%
%TO.N,VCC*%
X86350000Y-100000000D03*
X113650000Y-100000000D03*
%TD*%
D14*
%TO.P,GS3,1,In*%
%TO.N,GND*%
X108370000Y-88970000D03*
%TD*%
D15*
%TO.P,GND1,1,1*%
%TO.N,GND*%
X94020000Y-111980000D03*
%TD*%
%TO.P,Reset1,1,1*%
%TO.N,Net-(U1-~{RESET}{slash}PA0)*%
X97630000Y-86420000D03*
%TD*%
%TO.P,GS2,1,In*%
%TO.N,GND*%
X105310000Y-87110000D03*
%TD*%
%TO.P,S2,1,In*%
%TO.N,Net-(S2-In)*%
X101990000Y-86120000D03*
%TD*%
%TO.P,S1,1,In*%
%TO.N,Net-(S1-In)*%
X92490000Y-88300000D03*
%TD*%
%TO.P,VCC1,1,1*%
%TO.N,VCC*%
X90480000Y-109880000D03*
%TD*%
D16*
%TO.N,Net-(U1-~{RESET}{slash}PA0)*%
X94630000Y-87790000D03*
%TO.N,VCC*%
X86420000Y-104660000D03*
%TO.N,GND*%
X113450000Y-105560000D03*
X97000000Y-113310000D03*
X105120000Y-95170000D03*
X87270000Y-94340000D03*
X100000000Y-86280000D03*
X103000000Y-113310000D03*
X105120000Y-92560000D03*
X100000000Y-100000000D03*
X113490000Y-95080000D03*
%TO.N,Net-(S1-In)*%
X90220000Y-89550000D03*
%TO.N,Net-(S2-In)*%
X112412105Y-93340126D03*
%TO.N,Net-(S3-In)*%
X112973433Y-93910139D03*
%TD*%
D17*
%TO.N,Net-(U1-~{RESET}{slash}PA0)*%
X97630000Y-86420000D02*
X96000000Y-86420000D01*
X94630000Y-87790000D02*
X94660000Y-87760000D01*
X96000000Y-86420000D02*
X94630000Y-87790000D01*
%TO.N,VCC*%
X86420000Y-105820000D02*
X90480000Y-109880000D01*
X86350000Y-104590000D02*
X86350000Y-100000000D01*
X86420000Y-104660000D02*
X86350000Y-104590000D01*
X86420000Y-104660000D02*
X86420000Y-105820000D01*
%TO.N,Net-(S1-In)*%
X90220000Y-89550000D02*
X91240000Y-89550000D01*
X91240000Y-89550000D02*
X92490000Y-88300000D01*
%TO.N,Net-(S2-In)*%
X112412105Y-93340126D02*
X111982231Y-93770000D01*
X103410000Y-93770000D02*
X101970000Y-92330000D01*
X111982231Y-93770000D02*
X103410000Y-93770000D01*
X101970000Y-92330000D02*
X101970000Y-86250000D01*
%TO.N,Net-(S3-In)*%
X113360000Y-92830000D02*
X112080000Y-91550000D01*
X112973433Y-93910139D02*
X113360000Y-93523572D01*
X113360000Y-93523572D02*
X113360000Y-92830000D01*
X112080000Y-91550000D02*
X111220000Y-91550000D01*
%TD*%
%TA.AperFunction,Conductor*%
%TO.N,GND*%
G36*
X100383409Y-84505316D02*
G01*
X100595736Y-84515748D01*
X100661729Y-84538699D01*
X100704838Y-84593684D01*
X100711376Y-84663247D01*
X100679268Y-84725302D01*
X100663965Y-84738864D01*
X100632454Y-84762453D01*
X100632452Y-84762455D01*
X100546206Y-84877664D01*
X100546202Y-84877671D01*
X100495908Y-85012517D01*
X100489501Y-85072116D01*
X100489500Y-85072135D01*
X100489500Y-87167870D01*
X100489501Y-87167876D01*
X100495908Y-87227483D01*
X100546202Y-87362328D01*
X100546206Y-87362335D01*
X100632452Y-87477544D01*
X100632455Y-87477547D01*
X100747664Y-87563793D01*
X100747671Y-87563797D01*
X100788039Y-87578853D01*
X100882517Y-87614091D01*
X100942127Y-87620500D01*
X101245500Y-87620499D01*
X101312539Y-87640183D01*
X101358294Y-87692987D01*
X101369500Y-87744499D01*
X101369500Y-92243330D01*
X101369499Y-92243348D01*
X101369499Y-92409054D01*
X101369498Y-92409054D01*
X101403226Y-92534924D01*
X101410423Y-92561785D01*
X101415391Y-92570389D01*
X101415392Y-92570390D01*
X101415393Y-92570393D01*
X101489477Y-92698712D01*
X101489481Y-92698717D01*
X101608349Y-92817585D01*
X101608354Y-92817589D01*
X103041284Y-94250520D01*
X103041286Y-94250521D01*
X103041290Y-94250524D01*
X103108495Y-94289324D01*
X103178216Y-94329577D01*
X103330943Y-94370501D01*
X103330945Y-94370501D01*
X103496654Y-94370501D01*
X103496670Y-94370500D01*
X111895562Y-94370500D01*
X111895578Y-94370501D01*
X111903174Y-94370501D01*
X112061285Y-94370501D01*
X112061288Y-94370501D01*
X112193430Y-94335093D01*
X112263278Y-94336756D01*
X112321141Y-94375918D01*
X112328624Y-94385977D01*
X112351643Y-94420427D01*
X112351646Y-94420431D01*
X112463140Y-94531925D01*
X112463144Y-94531928D01*
X112594247Y-94619529D01*
X112594260Y-94619536D01*
X112739931Y-94679874D01*
X112739936Y-94679876D01*
X112894586Y-94710638D01*
X112894589Y-94710639D01*
X112894591Y-94710639D01*
X113052277Y-94710639D01*
X113052278Y-94710638D01*
X113206930Y-94679876D01*
X113352612Y-94619533D01*
X113483722Y-94531928D01*
X113595222Y-94420428D01*
X113682827Y-94289318D01*
X113743170Y-94143636D01*
X113773933Y-93988981D01*
X113773933Y-93988979D01*
X113774070Y-93988291D01*
X113794376Y-93940983D01*
X113800494Y-93932313D01*
X113840520Y-93892288D01*
X113890639Y-93805476D01*
X113919577Y-93755357D01*
X113928858Y-93720718D01*
X113942933Y-93697625D01*
X113953841Y-93672870D01*
X113960849Y-93668232D01*
X113965222Y-93661058D01*
X113989551Y-93649239D01*
X114012109Y-93634312D01*
X114020510Y-93634199D01*
X114028069Y-93630528D01*
X114054927Y-93633738D01*
X114081972Y-93633377D01*
X114089100Y-93637824D01*
X114097445Y-93638822D01*
X114118303Y-93656044D01*
X114141251Y-93670361D01*
X114148005Y-93680567D01*
X114151323Y-93683307D01*
X114160728Y-93699794D01*
X114168495Y-93716216D01*
X114170961Y-93721780D01*
X114459761Y-94419005D01*
X114461951Y-94424684D01*
X114716180Y-95135207D01*
X114718090Y-95140986D01*
X114838979Y-95539505D01*
X114839602Y-95609372D01*
X114802354Y-95668485D01*
X114739060Y-95698075D01*
X114720318Y-95699500D01*
X112302129Y-95699500D01*
X112302123Y-95699501D01*
X112242516Y-95705908D01*
X112107671Y-95756202D01*
X112107664Y-95756206D01*
X111992455Y-95842452D01*
X111992452Y-95842455D01*
X111906206Y-95957664D01*
X111906202Y-95957671D01*
X111855908Y-96092517D01*
X111849501Y-96152116D01*
X111849501Y-96152123D01*
X111849500Y-96152135D01*
X111849500Y-103847870D01*
X111849501Y-103847876D01*
X111855908Y-103907483D01*
X111906202Y-104042328D01*
X111906206Y-104042335D01*
X111992452Y-104157544D01*
X111992455Y-104157547D01*
X112107664Y-104243793D01*
X112107671Y-104243797D01*
X112242517Y-104294091D01*
X112242516Y-104294091D01*
X112249444Y-104294835D01*
X112302127Y-104300500D01*
X114720319Y-104300499D01*
X114787358Y-104320184D01*
X114833113Y-104372987D01*
X114843057Y-104442146D01*
X114838980Y-104460494D01*
X114718090Y-104859013D01*
X114716180Y-104864792D01*
X114461951Y-105575315D01*
X114459761Y-105580994D01*
X114170961Y-106278219D01*
X114168495Y-106283783D01*
X113845825Y-106966011D01*
X113843088Y-106971447D01*
X113487349Y-107636988D01*
X113484349Y-107642284D01*
X113096374Y-108289583D01*
X113093118Y-108294725D01*
X112673851Y-108922201D01*
X112670347Y-108927177D01*
X112220782Y-109533344D01*
X112217037Y-109538142D01*
X111738288Y-110121500D01*
X111734313Y-110126108D01*
X111227509Y-110685281D01*
X111223312Y-110689689D01*
X110689689Y-111223312D01*
X110685281Y-111227509D01*
X110126108Y-111734313D01*
X110121500Y-111738288D01*
X109538142Y-112217037D01*
X109533344Y-112220782D01*
X108927177Y-112670347D01*
X108922201Y-112673851D01*
X108294725Y-113093118D01*
X108289583Y-113096374D01*
X107642284Y-113484349D01*
X107636988Y-113487349D01*
X106971447Y-113843088D01*
X106966011Y-113845825D01*
X106283783Y-114168495D01*
X106278219Y-114170961D01*
X105580994Y-114459761D01*
X105575315Y-114461951D01*
X104864792Y-114716180D01*
X104859013Y-114718090D01*
X104136825Y-114937163D01*
X104130960Y-114938786D01*
X103398900Y-115122158D01*
X103392961Y-115123491D01*
X102652820Y-115270714D01*
X102646824Y-115271755D01*
X101900313Y-115382490D01*
X101894272Y-115383235D01*
X101143248Y-115457204D01*
X101137179Y-115457652D01*
X100641345Y-115482011D01*
X100383408Y-115494683D01*
X100377326Y-115494832D01*
X99622674Y-115494832D01*
X99616591Y-115494683D01*
X99239704Y-115476167D01*
X98862820Y-115457652D01*
X98856751Y-115457204D01*
X98105727Y-115383235D01*
X98099686Y-115382490D01*
X97353175Y-115271755D01*
X97347179Y-115270714D01*
X96607038Y-115123491D01*
X96601099Y-115122158D01*
X95869039Y-114938786D01*
X95863174Y-114937163D01*
X95140986Y-114718090D01*
X95135207Y-114716180D01*
X94424684Y-114461951D01*
X94419005Y-114459761D01*
X93721780Y-114170961D01*
X93716216Y-114168495D01*
X93033988Y-113845825D01*
X93028552Y-113843088D01*
X92363011Y-113487349D01*
X92357715Y-113484349D01*
X91920166Y-113222093D01*
X91710403Y-113096365D01*
X91705288Y-113093126D01*
X91607586Y-113027844D01*
X92520000Y-113027844D01*
X92526401Y-113087372D01*
X92526403Y-113087379D01*
X92576645Y-113222086D01*
X92576649Y-113222093D01*
X92662809Y-113337187D01*
X92662812Y-113337190D01*
X92777906Y-113423350D01*
X92777913Y-113423354D01*
X92912620Y-113473596D01*
X92912627Y-113473598D01*
X92972155Y-113479999D01*
X92972172Y-113480000D01*
X93770000Y-113480000D01*
X94270000Y-113480000D01*
X95067828Y-113480000D01*
X95067844Y-113479999D01*
X95127372Y-113473598D01*
X95127379Y-113473596D01*
X95262086Y-113423354D01*
X95262093Y-113423350D01*
X95377187Y-113337190D01*
X95377190Y-113337187D01*
X95463350Y-113222093D01*
X95463354Y-113222086D01*
X95513596Y-113087379D01*
X95513598Y-113087372D01*
X95519999Y-113027844D01*
X95520000Y-113027827D01*
X95520000Y-112230000D01*
X94270000Y-112230000D01*
X94270000Y-113480000D01*
X93770000Y-113480000D01*
X93770000Y-112230000D01*
X92520000Y-112230000D01*
X92520000Y-113027844D01*
X91607586Y-113027844D01*
X91077798Y-112673851D01*
X91072822Y-112670347D01*
X90544123Y-112278236D01*
X90466655Y-112220782D01*
X90461857Y-112217037D01*
X89878499Y-111738288D01*
X89873891Y-111734313D01*
X89721702Y-111596377D01*
X89685248Y-111536771D01*
X89686807Y-111466918D01*
X89725883Y-111408998D01*
X89790071Y-111381398D01*
X89804975Y-111380499D01*
X91527871Y-111380499D01*
X91527872Y-111380499D01*
X91587483Y-111374091D01*
X91722331Y-111323796D01*
X91837546Y-111237546D01*
X91923796Y-111122331D01*
X91974091Y-110987483D01*
X91980040Y-110932155D01*
X92520000Y-110932155D01*
X92520000Y-111730000D01*
X93770000Y-111730000D01*
X94270000Y-111730000D01*
X95520000Y-111730000D01*
X95520000Y-110932172D01*
X95519999Y-110932155D01*
X95513598Y-110872627D01*
X95513596Y-110872620D01*
X95463354Y-110737913D01*
X95463350Y-110737906D01*
X95377190Y-110622812D01*
X95377187Y-110622809D01*
X95262093Y-110536649D01*
X95262086Y-110536645D01*
X95127379Y-110486403D01*
X95127372Y-110486401D01*
X95067844Y-110480000D01*
X94270000Y-110480000D01*
X94270000Y-111730000D01*
X93770000Y-111730000D01*
X93770000Y-110480000D01*
X92972155Y-110480000D01*
X92912627Y-110486401D01*
X92912620Y-110486403D01*
X92777913Y-110536645D01*
X92777906Y-110536649D01*
X92662812Y-110622809D01*
X92662809Y-110622812D01*
X92576649Y-110737906D01*
X92576645Y-110737913D01*
X92526403Y-110872620D01*
X92526401Y-110872627D01*
X92520000Y-110932155D01*
X91980040Y-110932155D01*
X91980500Y-110927873D01*
X91980499Y-108832128D01*
X91974091Y-108772517D01*
X91923796Y-108637669D01*
X91923795Y-108637668D01*
X91923793Y-108637664D01*
X91837547Y-108522455D01*
X91837544Y-108522452D01*
X91722335Y-108436206D01*
X91722328Y-108436202D01*
X91587482Y-108385908D01*
X91587483Y-108385908D01*
X91527883Y-108379501D01*
X91527881Y-108379500D01*
X91527873Y-108379500D01*
X91527865Y-108379500D01*
X89880097Y-108379500D01*
X89813058Y-108359815D01*
X89792416Y-108343181D01*
X87056819Y-105607584D01*
X87023334Y-105546261D01*
X87020500Y-105519903D01*
X87020500Y-105239765D01*
X87040185Y-105172726D01*
X87041398Y-105170874D01*
X87129390Y-105039185D01*
X87129390Y-105039184D01*
X87129394Y-105039179D01*
X87189737Y-104893497D01*
X87220500Y-104738842D01*
X87220500Y-104581158D01*
X87220500Y-104581155D01*
X87220499Y-104581153D01*
X87194151Y-104448690D01*
X87200378Y-104379099D01*
X87243241Y-104323921D01*
X87309131Y-104300677D01*
X87315768Y-104300499D01*
X87697871Y-104300499D01*
X87697872Y-104300499D01*
X87757483Y-104294091D01*
X87892331Y-104243796D01*
X88007546Y-104157546D01*
X88093796Y-104042331D01*
X88144091Y-103907483D01*
X88150500Y-103847873D01*
X88150500Y-103355444D01*
X96998106Y-103355444D01*
X96998107Y-103355445D01*
X97257957Y-103573486D01*
X97579841Y-103798872D01*
X97579856Y-103798881D01*
X97920145Y-103995347D01*
X97920161Y-103995355D01*
X98276266Y-104161411D01*
X98276281Y-104161417D01*
X98645541Y-104295817D01*
X99025086Y-104397514D01*
X99025099Y-104397517D01*
X99412070Y-104465751D01*
X99412068Y-104465751D01*
X99803524Y-104499999D01*
X99803525Y-104500000D01*
X100196475Y-104500000D01*
X100196475Y-104499999D01*
X100587930Y-104465751D01*
X100974900Y-104397517D01*
X100974913Y-104397514D01*
X101354458Y-104295817D01*
X101723718Y-104161417D01*
X101723733Y-104161411D01*
X102079838Y-103995355D01*
X102079854Y-103995347D01*
X102420143Y-103798881D01*
X102420158Y-103798872D01*
X102742042Y-103573486D01*
X103001891Y-103355445D01*
X103001892Y-103355444D01*
X100000000Y-100353553D01*
X96998106Y-103355444D01*
X88150500Y-103355444D01*
X88150499Y-99803524D01*
X95500000Y-99803524D01*
X95500000Y-100196475D01*
X95534248Y-100587930D01*
X95602482Y-100974900D01*
X95602485Y-100974913D01*
X95704182Y-101354458D01*
X95838582Y-101723718D01*
X95838588Y-101723733D01*
X96004644Y-102079838D01*
X96004652Y-102079854D01*
X96201118Y-102420143D01*
X96201127Y-102420158D01*
X96426513Y-102742042D01*
X96644553Y-103001891D01*
X96644554Y-103001892D01*
X99646446Y-100000001D01*
X99646446Y-99999999D01*
X100353553Y-99999999D01*
X100353553Y-100000000D01*
X103355444Y-103001892D01*
X103355445Y-103001891D01*
X103573486Y-102742042D01*
X103798872Y-102420158D01*
X103798881Y-102420143D01*
X103995347Y-102079854D01*
X103995355Y-102079838D01*
X104161411Y-101723733D01*
X104161417Y-101723718D01*
X104295817Y-101354458D01*
X104397514Y-100974913D01*
X104397517Y-100974900D01*
X104465751Y-100587930D01*
X104499999Y-100196475D01*
X104500000Y-100196475D01*
X104500000Y-99803525D01*
X104499999Y-99803524D01*
X104465751Y-99412069D01*
X104397517Y-99025099D01*
X104397514Y-99025086D01*
X104295817Y-98645541D01*
X104161417Y-98276281D01*
X104161411Y-98276266D01*
X103995355Y-97920161D01*
X103995347Y-97920145D01*
X103798881Y-97579856D01*
X103798872Y-97579841D01*
X103573486Y-97257957D01*
X103355445Y-96998107D01*
X103355444Y-96998106D01*
X100353553Y-99999999D01*
X99646446Y-99999999D01*
X96644555Y-96998107D01*
X96426508Y-97257964D01*
X96201127Y-97579841D01*
X96201118Y-97579856D01*
X96004652Y-97920145D01*
X96004644Y-97920161D01*
X95838588Y-98276266D01*
X95838582Y-98276281D01*
X95704182Y-98645541D01*
X95602485Y-99025086D01*
X95602482Y-99025099D01*
X95534248Y-99412069D01*
X95500000Y-99803524D01*
X88150499Y-99803524D01*
X88150499Y-96644555D01*
X96998107Y-96644555D01*
X99999999Y-99646446D01*
X103001892Y-96644554D01*
X103001891Y-96644553D01*
X102742042Y-96426513D01*
X102420158Y-96201127D01*
X102420143Y-96201118D01*
X102079854Y-96004652D01*
X102079838Y-96004644D01*
X101723733Y-95838588D01*
X101723718Y-95838582D01*
X101354458Y-95704182D01*
X100974913Y-95602485D01*
X100974900Y-95602482D01*
X100587929Y-95534248D01*
X100587931Y-95534248D01*
X100196475Y-95500000D01*
X99803525Y-95500000D01*
X99412069Y-95534248D01*
X99025099Y-95602482D01*
X99025086Y-95602485D01*
X98645541Y-95704182D01*
X98276281Y-95838582D01*
X98276266Y-95838588D01*
X97920161Y-96004644D01*
X97920145Y-96004652D01*
X97579856Y-96201118D01*
X97579841Y-96201127D01*
X97257964Y-96426508D01*
X96998107Y-96644555D01*
X88150499Y-96644555D01*
X88150499Y-96152128D01*
X88144091Y-96092517D01*
X88093796Y-95957669D01*
X88093795Y-95957668D01*
X88093793Y-95957664D01*
X88007547Y-95842455D01*
X88007544Y-95842452D01*
X87892335Y-95756206D01*
X87892328Y-95756202D01*
X87757482Y-95705908D01*
X87757483Y-95705908D01*
X87697883Y-95699501D01*
X87697881Y-95699500D01*
X87697873Y-95699500D01*
X87697865Y-95699500D01*
X85279681Y-95699500D01*
X85212642Y-95679815D01*
X85166887Y-95627011D01*
X85156943Y-95557853D01*
X85161020Y-95539505D01*
X85278834Y-95151121D01*
X85281911Y-95140980D01*
X85283816Y-95135214D01*
X85538056Y-94424662D01*
X85540229Y-94419026D01*
X85829049Y-93721754D01*
X85831492Y-93716241D01*
X86154183Y-93033969D01*
X86156901Y-93028570D01*
X86512663Y-92362986D01*
X86515636Y-92357738D01*
X86779643Y-91917270D01*
X86830991Y-91869889D01*
X86899805Y-91857791D01*
X86964236Y-91884817D01*
X87003828Y-91942386D01*
X87010000Y-91981020D01*
X87010000Y-92857844D01*
X87016401Y-92917372D01*
X87016403Y-92917379D01*
X87066645Y-93052086D01*
X87066649Y-93052093D01*
X87152809Y-93167187D01*
X87152812Y-93167190D01*
X87267906Y-93253350D01*
X87267913Y-93253354D01*
X87402620Y-93303596D01*
X87402627Y-93303598D01*
X87462155Y-93309999D01*
X87462172Y-93310000D01*
X88260000Y-93310000D01*
X88760000Y-93310000D01*
X89150942Y-93310000D01*
X89150943Y-93309999D01*
X89234925Y-93299450D01*
X89367758Y-93244429D01*
X89434596Y-93192507D01*
X89434609Y-93192496D01*
X89892496Y-92734609D01*
X89892507Y-92734596D01*
X89944429Y-92667758D01*
X89944429Y-92667757D01*
X89999450Y-92534924D01*
X90009999Y-92450941D01*
X90010000Y-92450935D01*
X90010000Y-92060000D01*
X88760000Y-92060000D01*
X88760000Y-93310000D01*
X88260000Y-93310000D01*
X88260000Y-90310000D01*
X88169764Y-90310000D01*
X88102725Y-90290315D01*
X88056970Y-90237511D01*
X88047026Y-90168353D01*
X88073911Y-90107335D01*
X88112518Y-90060292D01*
X88261723Y-89878485D01*
X88265673Y-89873905D01*
X88772508Y-89314698D01*
X88776667Y-89310330D01*
X89310330Y-88776667D01*
X89314698Y-88772508D01*
X89873905Y-88265673D01*
X89878485Y-88261723D01*
X90461872Y-87782949D01*
X90466639Y-87779228D01*
X90791634Y-87538195D01*
X90857206Y-87514072D01*
X90925412Y-87529228D01*
X90974596Y-87578853D01*
X90989500Y-87637794D01*
X90989501Y-88825500D01*
X90986950Y-88834185D01*
X90988239Y-88843147D01*
X90977260Y-88867187D01*
X90969816Y-88892539D01*
X90962975Y-88898466D01*
X90959214Y-88906703D01*
X90936981Y-88920990D01*
X90917013Y-88938294D01*
X90906497Y-88940581D01*
X90900436Y-88944477D01*
X90865501Y-88949500D01*
X90799766Y-88949500D01*
X90732727Y-88929815D01*
X90730875Y-88928602D01*
X90599185Y-88840609D01*
X90599172Y-88840602D01*
X90453501Y-88780264D01*
X90453489Y-88780261D01*
X90298845Y-88749500D01*
X90298842Y-88749500D01*
X90141158Y-88749500D01*
X90141155Y-88749500D01*
X89986510Y-88780261D01*
X89986498Y-88780264D01*
X89840827Y-88840602D01*
X89840814Y-88840609D01*
X89709711Y-88928210D01*
X89709707Y-88928213D01*
X89598213Y-89039707D01*
X89598210Y-89039711D01*
X89510609Y-89170814D01*
X89510602Y-89170827D01*
X89450264Y-89316498D01*
X89450261Y-89316510D01*
X89419500Y-89471153D01*
X89419500Y-89628846D01*
X89450261Y-89783489D01*
X89450264Y-89783501D01*
X89510602Y-89929172D01*
X89510609Y-89929185D01*
X89598210Y-90060288D01*
X89598213Y-90060292D01*
X89636240Y-90098319D01*
X89669725Y-90159642D01*
X89664741Y-90229334D01*
X89622869Y-90285267D01*
X89557405Y-90309684D01*
X89548559Y-90310000D01*
X88760000Y-90310000D01*
X88760000Y-91560000D01*
X90010000Y-91560000D01*
X90010000Y-90762172D01*
X90009999Y-90762155D01*
X90003598Y-90702627D01*
X90003596Y-90702620D01*
X89953354Y-90567913D01*
X89953350Y-90567906D01*
X89923200Y-90527631D01*
X89898782Y-90462167D01*
X89913633Y-90393894D01*
X89963038Y-90344488D01*
X90031311Y-90329636D01*
X90046658Y-90331703D01*
X90141155Y-90350500D01*
X90141158Y-90350500D01*
X90298844Y-90350500D01*
X90298845Y-90350499D01*
X90453497Y-90319737D01*
X90599179Y-90259394D01*
X90644167Y-90229334D01*
X90730875Y-90171398D01*
X90797553Y-90150520D01*
X90799766Y-90150500D01*
X91153331Y-90150500D01*
X91153347Y-90150501D01*
X91160943Y-90150501D01*
X91319054Y-90150501D01*
X91319057Y-90150501D01*
X91471785Y-90109577D01*
X91521904Y-90080639D01*
X91608716Y-90030520D01*
X91720520Y-89918716D01*
X91720521Y-89918713D01*
X91802418Y-89836815D01*
X91863740Y-89803333D01*
X91890097Y-89800499D01*
X93537871Y-89800499D01*
X93537872Y-89800499D01*
X93597483Y-89794091D01*
X93732331Y-89743796D01*
X93847546Y-89657546D01*
X93933796Y-89542331D01*
X93984091Y-89407483D01*
X93990500Y-89347873D01*
X93990499Y-88557439D01*
X94010183Y-88490401D01*
X94062987Y-88444646D01*
X94132146Y-88434702D01*
X94183390Y-88454338D01*
X94250821Y-88499394D01*
X94250823Y-88499395D01*
X94250827Y-88499397D01*
X94396498Y-88559735D01*
X94396503Y-88559737D01*
X94551153Y-88590499D01*
X94551156Y-88590500D01*
X94551158Y-88590500D01*
X94708844Y-88590500D01*
X94708845Y-88590499D01*
X94863497Y-88559737D01*
X95009179Y-88499394D01*
X95140289Y-88411789D01*
X95251789Y-88300289D01*
X95339394Y-88169179D01*
X95399737Y-88023497D01*
X95430500Y-87868842D01*
X95430638Y-87868150D01*
X95463023Y-87806239D01*
X95464521Y-87804713D01*
X95917821Y-87351412D01*
X95979142Y-87317929D01*
X96048833Y-87322913D01*
X96104767Y-87364784D01*
X96129184Y-87430249D01*
X96129500Y-87439091D01*
X96129500Y-87467868D01*
X96129501Y-87467876D01*
X96135908Y-87527483D01*
X96186202Y-87662328D01*
X96186206Y-87662335D01*
X96272452Y-87777544D01*
X96272455Y-87777547D01*
X96387664Y-87863793D01*
X96387671Y-87863797D01*
X96522517Y-87914091D01*
X96522516Y-87914091D01*
X96529444Y-87914835D01*
X96582127Y-87920500D01*
X98677872Y-87920499D01*
X98737483Y-87914091D01*
X98872331Y-87863796D01*
X98987546Y-87777546D01*
X99073796Y-87662331D01*
X99124091Y-87527483D01*
X99130500Y-87467873D01*
X99130499Y-85372128D01*
X99124091Y-85312517D01*
X99113387Y-85283819D01*
X99073797Y-85177671D01*
X99073793Y-85177664D01*
X98987547Y-85062455D01*
X98987544Y-85062452D01*
X98872335Y-84976206D01*
X98872328Y-84976202D01*
X98737482Y-84925908D01*
X98737483Y-84925908D01*
X98677883Y-84919501D01*
X98677881Y-84919500D01*
X98677873Y-84919500D01*
X98677865Y-84919500D01*
X97744857Y-84919500D01*
X97677818Y-84899815D01*
X97632063Y-84847011D01*
X97622119Y-84777853D01*
X97651144Y-84714297D01*
X97709922Y-84676523D01*
X97726655Y-84672843D01*
X98099705Y-84617506D01*
X98105707Y-84616766D01*
X98856788Y-84542792D01*
X98862784Y-84542349D01*
X99616590Y-84505316D01*
X99622674Y-84505168D01*
X100377326Y-84505168D01*
X100383409Y-84505316D01*
G37*
%TD.AperFunction*%
%TA.AperFunction,Conductor*%
G36*
X103643986Y-84939231D02*
G01*
X104130960Y-85061213D01*
X104136823Y-85062835D01*
X104859020Y-85281911D01*
X104864784Y-85283816D01*
X104944989Y-85312514D01*
X105103552Y-85369249D01*
X105160042Y-85410367D01*
X105185333Y-85475499D01*
X105171396Y-85543965D01*
X105122656Y-85594027D01*
X105061778Y-85610000D01*
X104262155Y-85610000D01*
X104202627Y-85616401D01*
X104202620Y-85616403D01*
X104067913Y-85666645D01*
X104067906Y-85666649D01*
X103952812Y-85752809D01*
X103952809Y-85752812D01*
X103866649Y-85867906D01*
X103866645Y-85867913D01*
X103816403Y-86002620D01*
X103816401Y-86002627D01*
X103810000Y-86062155D01*
X103810000Y-86860000D01*
X106810000Y-86860000D01*
X106810000Y-86277496D01*
X106829685Y-86210457D01*
X106882489Y-86164702D01*
X106951647Y-86154758D01*
X106992448Y-86168136D01*
X107623383Y-86505378D01*
X107636988Y-86512650D01*
X107642278Y-86515647D01*
X108289607Y-86903640D01*
X108294701Y-86906866D01*
X108909900Y-87317929D01*
X108922201Y-87326148D01*
X108927173Y-87329649D01*
X109126586Y-87477544D01*
X109152013Y-87496402D01*
X109194133Y-87552149D01*
X109199429Y-87621817D01*
X109166218Y-87683289D01*
X109105044Y-87717047D01*
X109078146Y-87720000D01*
X108620000Y-87720000D01*
X108620000Y-88720000D01*
X109620000Y-88720000D01*
X109620000Y-88172172D01*
X109619999Y-88172160D01*
X109614436Y-88120425D01*
X109626840Y-88051665D01*
X109674449Y-88000527D01*
X109742148Y-87983246D01*
X109808443Y-88005309D01*
X109816390Y-88011314D01*
X110121500Y-88261711D01*
X110126108Y-88265686D01*
X110685281Y-88772490D01*
X110689689Y-88776687D01*
X111223312Y-89310310D01*
X111227509Y-89314718D01*
X111705614Y-89842227D01*
X111736050Y-89905119D01*
X111727651Y-89974482D01*
X111683086Y-90028294D01*
X111616502Y-90049469D01*
X111613736Y-90049500D01*
X110172129Y-90049500D01*
X110172123Y-90049501D01*
X110112516Y-90055908D01*
X109977671Y-90106202D01*
X109977664Y-90106206D01*
X109862455Y-90192452D01*
X109862452Y-90192455D01*
X109776206Y-90307664D01*
X109776202Y-90307671D01*
X109725908Y-90442517D01*
X109719501Y-90502116D01*
X109719500Y-90502135D01*
X109719500Y-92190970D01*
X109730060Y-92275049D01*
X109785136Y-92408015D01*
X109796738Y-92422950D01*
X109837121Y-92474935D01*
X109837127Y-92474941D01*
X110295067Y-92932882D01*
X110295077Y-92932891D01*
X110313979Y-92947574D01*
X110354846Y-93004245D01*
X110358587Y-93074015D01*
X110324014Y-93134731D01*
X110262103Y-93167117D01*
X110237910Y-93169500D01*
X103710098Y-93169500D01*
X103643059Y-93149815D01*
X103622417Y-93133181D01*
X102606819Y-92117583D01*
X102573334Y-92056260D01*
X102570500Y-92029902D01*
X102570500Y-89767844D01*
X107120000Y-89767844D01*
X107126401Y-89827372D01*
X107126403Y-89827379D01*
X107176645Y-89962086D01*
X107176649Y-89962093D01*
X107262809Y-90077187D01*
X107262812Y-90077190D01*
X107377906Y-90163350D01*
X107377913Y-90163354D01*
X107512620Y-90213596D01*
X107512627Y-90213598D01*
X107572155Y-90219999D01*
X107572172Y-90220000D01*
X108120000Y-90220000D01*
X108620000Y-90220000D01*
X109167828Y-90220000D01*
X109167844Y-90219999D01*
X109227372Y-90213598D01*
X109227379Y-90213596D01*
X109362086Y-90163354D01*
X109362093Y-90163350D01*
X109477187Y-90077190D01*
X109477190Y-90077187D01*
X109563350Y-89962093D01*
X109563354Y-89962086D01*
X109613596Y-89827379D01*
X109613598Y-89827372D01*
X109619999Y-89767844D01*
X109620000Y-89767827D01*
X109620000Y-89220000D01*
X108620000Y-89220000D01*
X108620000Y-90220000D01*
X108120000Y-90220000D01*
X108120000Y-89220000D01*
X107120000Y-89220000D01*
X107120000Y-89767844D01*
X102570500Y-89767844D01*
X102570500Y-88157844D01*
X103810000Y-88157844D01*
X103816401Y-88217372D01*
X103816403Y-88217379D01*
X103866645Y-88352086D01*
X103866649Y-88352093D01*
X103952809Y-88467187D01*
X103952812Y-88467190D01*
X104067906Y-88553350D01*
X104067913Y-88553354D01*
X104202620Y-88603596D01*
X104202627Y-88603598D01*
X104262155Y-88609999D01*
X104262172Y-88610000D01*
X105060000Y-88610000D01*
X105560000Y-88610000D01*
X106357828Y-88610000D01*
X106357844Y-88609999D01*
X106417372Y-88603598D01*
X106417379Y-88603596D01*
X106552086Y-88553354D01*
X106552093Y-88553350D01*
X106667187Y-88467190D01*
X106667190Y-88467187D01*
X106753350Y-88352093D01*
X106753354Y-88352086D01*
X106803596Y-88217379D01*
X106803598Y-88217372D01*
X106808460Y-88172155D01*
X107120000Y-88172155D01*
X107120000Y-88720000D01*
X108120000Y-88720000D01*
X108120000Y-87720000D01*
X107572155Y-87720000D01*
X107512627Y-87726401D01*
X107512620Y-87726403D01*
X107377913Y-87776645D01*
X107377906Y-87776649D01*
X107262812Y-87862809D01*
X107262809Y-87862812D01*
X107176649Y-87977906D01*
X107176645Y-87977913D01*
X107126403Y-88112620D01*
X107126401Y-88112627D01*
X107120000Y-88172155D01*
X106808460Y-88172155D01*
X106809999Y-88157845D01*
X106810000Y-88157827D01*
X106810000Y-87360000D01*
X105560000Y-87360000D01*
X105560000Y-88610000D01*
X105060000Y-88610000D01*
X105060000Y-87360000D01*
X103810000Y-87360000D01*
X103810000Y-88157844D01*
X102570500Y-88157844D01*
X102570500Y-87744499D01*
X102590185Y-87677460D01*
X102642989Y-87631705D01*
X102694500Y-87620499D01*
X103037871Y-87620499D01*
X103037872Y-87620499D01*
X103097483Y-87614091D01*
X103232331Y-87563796D01*
X103347546Y-87477546D01*
X103433796Y-87362331D01*
X103439188Y-87347872D01*
X103469985Y-87265305D01*
X103469985Y-87265304D01*
X103484090Y-87227485D01*
X103484091Y-87227483D01*
X103487850Y-87192517D01*
X103490500Y-87167873D01*
X103490499Y-85072128D01*
X103490498Y-85072116D01*
X103490321Y-85068804D01*
X103491294Y-85068751D01*
X103502974Y-85004012D01*
X103550584Y-84952875D01*
X103618283Y-84935595D01*
X103643986Y-84939231D01*
G37*
%TD.AperFunction*%
%TD*%
M02*
