%TF.GenerationSoftware,KiCad,Pcbnew,9.0.2*%
%TF.CreationDate,2025-05-30T03:52:38+02:00*%
%TF.ProjectId,Clock10,436c6f63-6b31-4302-9e6b-696361645f70,rev?*%
%TF.SameCoordinates,Original*%
%TF.FileFunction,Soldermask,Top*%
%TF.FilePolarity,Negative*%
%FSLAX46Y46*%
G04 Gerber Fmt 4.6, Leading zero omitted, Abs format (unit mm)*
G04 Created by KiCad (PCBNEW 9.0.2) date 2025-05-30 03:52:38*
%MOMM*%
%LPD*%
G01*
G04 APERTURE LIST*
G04 Aperture macros list*
%AMRoundRect*
0 Rectangle with rounded corners*
0 $1 Rounding radius*
0 $2 $3 $4 $5 $6 $7 $8 $9 X,Y pos of 4 corners*
0 Add a 4 corners polygon primitive as box body*
4,1,4,$2,$3,$4,$5,$6,$7,$8,$9,$2,$3,0*
0 Add four circle primitives for the rounded corners*
1,1,$1+$1,$2,$3*
1,1,$1+$1,$4,$5*
1,1,$1+$1,$6,$7*
1,1,$1+$1,$8,$9*
0 Add four rect primitives between the rounded corners*
20,1,$1+$1,$2,$3,$4,$5,0*
20,1,$1+$1,$4,$5,$6,$7,0*
20,1,$1+$1,$6,$7,$8,$9,0*
20,1,$1+$1,$8,$9,$2,$3,0*%
%AMFreePoly0*
4,1,14,0.334644,0.085355,0.385355,0.034644,0.400000,-0.000711,0.400000,-0.050000,0.385355,-0.085355,0.350000,-0.100000,-0.350000,-0.100000,-0.385355,-0.085355,-0.400000,-0.050000,-0.400000,0.050000,-0.385355,0.085355,-0.350000,0.100000,0.299289,0.100000,0.334644,0.085355,0.334644,0.085355,$1*%
%AMFreePoly1*
4,1,14,0.385355,0.085355,0.400000,0.050000,0.400000,0.000711,0.385355,-0.034644,0.334644,-0.085355,0.299289,-0.100000,-0.350000,-0.100000,-0.385355,-0.085355,-0.400000,-0.050000,-0.400000,0.050000,-0.385355,0.085355,-0.350000,0.100000,0.350000,0.100000,0.385355,0.085355,0.385355,0.085355,$1*%
%AMFreePoly2*
4,1,14,0.085355,0.385355,0.100000,0.350000,0.100000,-0.350000,0.085355,-0.385355,0.050000,-0.400000,-0.050000,-0.400000,-0.085355,-0.385355,-0.100000,-0.350000,-0.100000,0.299289,-0.085355,0.334644,-0.034644,0.385355,0.000711,0.400000,0.050000,0.400000,0.085355,0.385355,0.085355,0.385355,$1*%
%AMFreePoly3*
4,1,14,0.034644,0.385355,0.085355,0.334644,0.100000,0.299289,0.100000,-0.350000,0.085355,-0.385355,0.050000,-0.400000,-0.050000,-0.400000,-0.085355,-0.385355,-0.100000,-0.350000,-0.100000,0.350000,-0.085355,0.385355,-0.050000,0.400000,-0.000711,0.400000,0.034644,0.385355,0.034644,0.385355,$1*%
%AMFreePoly4*
4,1,14,0.385355,0.085355,0.400000,0.050000,0.400000,-0.050000,0.385355,-0.085355,0.350000,-0.100000,-0.299289,-0.100000,-0.334644,-0.085355,-0.385355,-0.034644,-0.400000,0.000711,-0.400000,0.050000,-0.385355,0.085355,-0.350000,0.100000,0.350000,0.100000,0.385355,0.085355,0.385355,0.085355,$1*%
%AMFreePoly5*
4,1,14,0.385355,0.085355,0.400000,0.050000,0.400000,-0.050000,0.385355,-0.085355,0.350000,-0.100000,-0.350000,-0.100000,-0.385355,-0.085355,-0.400000,-0.050000,-0.400000,-0.000711,-0.385355,0.034644,-0.334644,0.085355,-0.299289,0.100000,0.350000,0.100000,0.385355,0.085355,0.385355,0.085355,$1*%
%AMFreePoly6*
4,1,14,0.085355,0.385355,0.100000,0.350000,0.100000,-0.299289,0.085355,-0.334644,0.034644,-0.385355,-0.000711,-0.400000,-0.050000,-0.400000,-0.085355,-0.385355,-0.100000,-0.350000,-0.100000,0.350000,-0.085355,0.385355,-0.050000,0.400000,0.050000,0.400000,0.085355,0.385355,0.085355,0.385355,$1*%
%AMFreePoly7*
4,1,14,0.085355,0.385355,0.100000,0.350000,0.100000,-0.350000,0.085355,-0.385355,0.050000,-0.400000,0.000711,-0.400000,-0.034644,-0.385355,-0.085355,-0.334644,-0.100000,-0.299289,-0.100000,0.350000,-0.085355,0.385355,-0.050000,0.400000,0.050000,0.400000,0.085355,0.385355,0.085355,0.385355,$1*%
G04 Aperture macros list end*
%ADD10RoundRect,0.200000X-0.275000X0.200000X-0.275000X-0.200000X0.275000X-0.200000X0.275000X0.200000X0*%
%ADD11RoundRect,0.218750X0.256250X-0.218750X0.256250X0.218750X-0.256250X0.218750X-0.256250X-0.218750X0*%
%ADD12FreePoly0,0.000000*%
%ADD13RoundRect,0.050000X-0.350000X-0.050000X0.350000X-0.050000X0.350000X0.050000X-0.350000X0.050000X0*%
%ADD14FreePoly1,0.000000*%
%ADD15FreePoly2,0.000000*%
%ADD16RoundRect,0.050000X-0.050000X-0.350000X0.050000X-0.350000X0.050000X0.350000X-0.050000X0.350000X0*%
%ADD17FreePoly3,0.000000*%
%ADD18FreePoly4,0.000000*%
%ADD19FreePoly5,0.000000*%
%ADD20FreePoly6,0.000000*%
%ADD21FreePoly7,0.000000*%
%ADD22R,1.700000X1.700000*%
%ADD23RoundRect,0.200000X0.275000X-0.200000X0.275000X0.200000X-0.275000X0.200000X-0.275000X-0.200000X0*%
%ADD24RoundRect,0.225000X-0.250000X0.225000X-0.250000X-0.225000X0.250000X-0.225000X0.250000X0.225000X0*%
%ADD25RoundRect,0.218750X-0.256250X0.218750X-0.256250X-0.218750X0.256250X-0.218750X0.256250X0.218750X0*%
%ADD26RoundRect,0.100000X0.100000X-0.130000X0.100000X0.130000X-0.100000X0.130000X-0.100000X-0.130000X0*%
%ADD27R,1.800000X1.000000*%
%ADD28RoundRect,0.225000X0.250000X-0.225000X0.250000X0.225000X-0.250000X0.225000X-0.250000X-0.225000X0*%
%ADD29RoundRect,0.140000X0.170000X-0.140000X0.170000X0.140000X-0.170000X0.140000X-0.170000X-0.140000X0*%
G04 APERTURE END LIST*
D10*
%TO.C,R6*%
X94750000Y-109675000D03*
X94750000Y-111325000D03*
%TD*%
D11*
%TO.C,D9*%
X106000000Y-107427500D03*
X106000000Y-105852500D03*
%TD*%
%TO.C,D5*%
X90000000Y-107427500D03*
X90000000Y-105852500D03*
%TD*%
D12*
%TO.C,U1*%
X98550000Y-99200000D03*
D13*
X98550000Y-99600000D03*
X98550000Y-100000000D03*
X98550000Y-100400000D03*
D14*
X98550000Y-100800000D03*
D15*
X99200000Y-101450000D03*
D16*
X99600000Y-101450000D03*
X100000000Y-101450000D03*
X100400000Y-101450000D03*
D17*
X100800000Y-101450000D03*
D18*
X101450000Y-100800000D03*
D13*
X101450000Y-100400000D03*
X101450000Y-100000000D03*
X101450000Y-99600000D03*
D19*
X101450000Y-99200000D03*
D20*
X100800000Y-98550000D03*
D16*
X100400000Y-98550000D03*
X100000000Y-98550000D03*
X99600000Y-98550000D03*
D21*
X99200000Y-98550000D03*
D22*
X100000000Y-100000000D03*
%TD*%
D11*
%TO.C,D7*%
X98000000Y-107427500D03*
X98000000Y-105852500D03*
%TD*%
D23*
%TO.C,R1*%
X92500000Y-89825000D03*
X92500000Y-88175000D03*
%TD*%
D24*
%TO.C,C1*%
X109020000Y-101475000D03*
X109020000Y-103025000D03*
%TD*%
D10*
%TO.C,R7*%
X98375000Y-109675000D03*
X98375000Y-111325000D03*
%TD*%
D25*
%TO.C,D1*%
X92500000Y-92262500D03*
X92500000Y-93837500D03*
%TD*%
D26*
%TO.C,C3*%
X97330000Y-100500000D03*
X97330000Y-99860000D03*
%TD*%
D23*
%TO.C,R4*%
X107500000Y-89825000D03*
X107500000Y-88175000D03*
%TD*%
D25*
%TO.C,D3*%
X102500000Y-92262500D03*
X102500000Y-93837500D03*
%TD*%
D11*
%TO.C,D6*%
X94000000Y-107427500D03*
X94000000Y-105852500D03*
%TD*%
D25*
%TO.C,D2*%
X97500000Y-92262500D03*
X97500000Y-93837500D03*
%TD*%
%TO.C,D4*%
X107500000Y-92262500D03*
X107500000Y-93837500D03*
%TD*%
D10*
%TO.C,R0*%
X108500000Y-109675000D03*
X108500000Y-111325000D03*
%TD*%
D11*
%TO.C,D0*%
X110000000Y-107427500D03*
X110000000Y-105852500D03*
%TD*%
D23*
%TO.C,R2*%
X97500000Y-89825000D03*
X97500000Y-88175000D03*
%TD*%
D10*
%TO.C,R8*%
X101625000Y-109675000D03*
X101625000Y-111325000D03*
%TD*%
D27*
%TO.C,Y1*%
X105020000Y-98750000D03*
X105020000Y-101250000D03*
%TD*%
D11*
%TO.C,D8*%
X102000000Y-107427500D03*
X102000000Y-105852500D03*
%TD*%
D28*
%TO.C,C2*%
X109020000Y-98525000D03*
X109020000Y-96975000D03*
%TD*%
D29*
%TO.C,C4*%
X96510000Y-100680000D03*
X96510000Y-99720000D03*
%TD*%
D10*
%TO.C,R9*%
X105250000Y-109675000D03*
X105250000Y-111325000D03*
%TD*%
%TO.C,R5*%
X91500000Y-109675000D03*
X91500000Y-111325000D03*
%TD*%
D23*
%TO.C,R3*%
X102500000Y-89825000D03*
X102500000Y-88175000D03*
%TD*%
M02*
