%TF.GenerationSoftware,KiCad,Pcbnew,9.0.2*%
%TF.CreationDate,2025-07-12T02:23:40+02:00*%
%TF.ProjectId,Clock1.2,436c6f63-6b31-42e3-922e-6b696361645f,rev?*%
%TF.SameCoordinates,Original*%
%TF.FileFunction,Soldermask,Top*%
%TF.FilePolarity,Negative*%
%FSLAX46Y46*%
G04 Gerber Fmt 4.6, Leading zero omitted, Abs format (unit mm)*
G04 Created by KiCad (PCBNEW 9.0.2) date 2025-07-12 02:23:40*
%MOMM*%
%LPD*%
G01*
G04 APERTURE LIST*
G04 Aperture macros list*
%AMRoundRect*
0 Rectangle with rounded corners*
0 $1 Rounding radius*
0 $2 $3 $4 $5 $6 $7 $8 $9 X,Y pos of 4 corners*
0 Add a 4 corners polygon primitive as box body*
4,1,4,$2,$3,$4,$5,$6,$7,$8,$9,$2,$3,0*
0 Add four circle primitives for the rounded corners*
1,1,$1+$1,$2,$3*
1,1,$1+$1,$4,$5*
1,1,$1+$1,$6,$7*
1,1,$1+$1,$8,$9*
0 Add four rect primitives between the rounded corners*
20,1,$1+$1,$2,$3,$4,$5,0*
20,1,$1+$1,$4,$5,$6,$7,0*
20,1,$1+$1,$6,$7,$8,$9,0*
20,1,$1+$1,$8,$9,$2,$3,0*%
%AMFreePoly0*
4,1,14,0.334644,0.085355,0.385355,0.034644,0.400000,-0.000711,0.400000,-0.050000,0.385355,-0.085355,0.350000,-0.100000,-0.350000,-0.100000,-0.385355,-0.085355,-0.400000,-0.050000,-0.400000,0.050000,-0.385355,0.085355,-0.350000,0.100000,0.299289,0.100000,0.334644,0.085355,0.334644,0.085355,$1*%
%AMFreePoly1*
4,1,14,0.385355,0.085355,0.400000,0.050000,0.400000,0.000711,0.385355,-0.034644,0.334644,-0.085355,0.299289,-0.100000,-0.350000,-0.100000,-0.385355,-0.085355,-0.400000,-0.050000,-0.400000,0.050000,-0.385355,0.085355,-0.350000,0.100000,0.350000,0.100000,0.385355,0.085355,0.385355,0.085355,$1*%
%AMFreePoly2*
4,1,14,0.085355,0.385355,0.100000,0.350000,0.100000,-0.350000,0.085355,-0.385355,0.050000,-0.400000,-0.050000,-0.400000,-0.085355,-0.385355,-0.100000,-0.350000,-0.100000,0.299289,-0.085355,0.334644,-0.034644,0.385355,0.000711,0.400000,0.050000,0.400000,0.085355,0.385355,0.085355,0.385355,$1*%
%AMFreePoly3*
4,1,14,0.034644,0.385355,0.085355,0.334644,0.100000,0.299289,0.100000,-0.350000,0.085355,-0.385355,0.050000,-0.400000,-0.050000,-0.400000,-0.085355,-0.385355,-0.100000,-0.350000,-0.100000,0.350000,-0.085355,0.385355,-0.050000,0.400000,-0.000711,0.400000,0.034644,0.385355,0.034644,0.385355,$1*%
%AMFreePoly4*
4,1,14,0.385355,0.085355,0.400000,0.050000,0.400000,-0.050000,0.385355,-0.085355,0.350000,-0.100000,-0.299289,-0.100000,-0.334644,-0.085355,-0.385355,-0.034644,-0.400000,0.000711,-0.400000,0.050000,-0.385355,0.085355,-0.350000,0.100000,0.350000,0.100000,0.385355,0.085355,0.385355,0.085355,$1*%
%AMFreePoly5*
4,1,14,0.385355,0.085355,0.400000,0.050000,0.400000,-0.050000,0.385355,-0.085355,0.350000,-0.100000,-0.350000,-0.100000,-0.385355,-0.085355,-0.400000,-0.050000,-0.400000,-0.000711,-0.385355,0.034644,-0.334644,0.085355,-0.299289,0.100000,0.350000,0.100000,0.385355,0.085355,0.385355,0.085355,$1*%
%AMFreePoly6*
4,1,14,0.085355,0.385355,0.100000,0.350000,0.100000,-0.299289,0.085355,-0.334644,0.034644,-0.385355,-0.000711,-0.400000,-0.050000,-0.400000,-0.085355,-0.385355,-0.100000,-0.350000,-0.100000,0.350000,-0.085355,0.385355,-0.050000,0.400000,0.050000,0.400000,0.085355,0.385355,0.085355,0.385355,$1*%
%AMFreePoly7*
4,1,14,0.085355,0.385355,0.100000,0.350000,0.100000,-0.350000,0.085355,-0.385355,0.050000,-0.400000,0.000711,-0.400000,-0.034644,-0.385355,-0.085355,-0.334644,-0.100000,-0.299289,-0.100000,0.350000,-0.085355,0.385355,-0.050000,0.400000,0.050000,0.400000,0.085355,0.385355,0.085355,0.385355,$1*%
G04 Aperture macros list end*
%ADD10RoundRect,0.112500X0.437500X-0.262500X0.437500X0.262500X-0.437500X0.262500X-0.437500X-0.262500X0*%
%ADD11RoundRect,0.200000X-0.275000X0.200000X-0.275000X-0.200000X0.275000X-0.200000X0.275000X0.200000X0*%
%ADD12RoundRect,0.200000X0.200000X0.275000X-0.200000X0.275000X-0.200000X-0.275000X0.200000X-0.275000X0*%
%ADD13RoundRect,0.200000X0.275000X-0.200000X0.275000X0.200000X-0.275000X0.200000X-0.275000X-0.200000X0*%
%ADD14RoundRect,0.112500X-0.437500X0.262500X-0.437500X-0.262500X0.437500X-0.262500X0.437500X0.262500X0*%
%ADD15FreePoly0,0.000000*%
%ADD16RoundRect,0.050000X-0.350000X-0.050000X0.350000X-0.050000X0.350000X0.050000X-0.350000X0.050000X0*%
%ADD17FreePoly1,0.000000*%
%ADD18FreePoly2,0.000000*%
%ADD19RoundRect,0.050000X-0.050000X-0.350000X0.050000X-0.350000X0.050000X0.350000X-0.050000X0.350000X0*%
%ADD20FreePoly3,0.000000*%
%ADD21FreePoly4,0.000000*%
%ADD22FreePoly5,0.000000*%
%ADD23FreePoly6,0.000000*%
%ADD24FreePoly7,0.000000*%
%ADD25R,1.700000X1.700000*%
%ADD26RoundRect,0.100000X-0.130000X-0.100000X0.130000X-0.100000X0.130000X0.100000X-0.130000X0.100000X0*%
%ADD27RoundRect,0.100000X0.100000X-0.130000X0.100000X0.130000X-0.100000X0.130000X-0.100000X-0.130000X0*%
%ADD28RoundRect,0.125000X-0.275000X-0.125000X0.275000X-0.125000X0.275000X0.125000X-0.275000X0.125000X0*%
%ADD29RoundRect,0.100000X0.130000X0.100000X-0.130000X0.100000X-0.130000X-0.100000X0.130000X-0.100000X0*%
%ADD30C,1.600000*%
%ADD31C,1.400000*%
G04 APERTURE END LIST*
D10*
%TO.C,D4*%
X90000000Y-107325000D03*
X90000000Y-105675000D03*
%TD*%
D11*
%TO.C,R7*%
X101625000Y-108925000D03*
X101625000Y-110575000D03*
%TD*%
%TO.C,R5*%
X94750000Y-108925000D03*
X94750000Y-110575000D03*
%TD*%
D12*
%TO.C,R11*%
X105325000Y-97050000D03*
X103675000Y-97050000D03*
%TD*%
D11*
%TO.C,R9*%
X108500000Y-108925000D03*
X108500000Y-110575000D03*
%TD*%
%TO.C,R6*%
X98375000Y-108925000D03*
X98375000Y-110575000D03*
%TD*%
D13*
%TO.C,R3*%
X105750000Y-90850000D03*
X105750000Y-89200000D03*
%TD*%
%TO.C,R1*%
X98250000Y-90850000D03*
X98250000Y-89200000D03*
%TD*%
D14*
%TO.C,D1*%
X97500000Y-92675000D03*
X97500000Y-94325000D03*
%TD*%
D15*
%TO.C,U1*%
X98550000Y-99200000D03*
D16*
X98550000Y-99600000D03*
X98550000Y-100000000D03*
X98550000Y-100400000D03*
D17*
X98550000Y-100800000D03*
D18*
X99200000Y-101450000D03*
D19*
X99600000Y-101450000D03*
X100000000Y-101450000D03*
X100400000Y-101450000D03*
D20*
X100800000Y-101450000D03*
D21*
X101450000Y-100800000D03*
D16*
X101450000Y-100400000D03*
X101450000Y-100000000D03*
X101450000Y-99600000D03*
D22*
X101450000Y-99200000D03*
D23*
X100800000Y-98550000D03*
D19*
X100400000Y-98550000D03*
X100000000Y-98550000D03*
X99600000Y-98550000D03*
D24*
X99200000Y-98550000D03*
D25*
X100000000Y-100000000D03*
%TD*%
D14*
%TO.C,D0*%
X92500000Y-92675000D03*
X92500000Y-94325000D03*
%TD*%
D12*
%TO.C,R12*%
X105325000Y-102950000D03*
X103675000Y-102950000D03*
%TD*%
D10*
%TO.C,D6*%
X98000000Y-107325000D03*
X98000000Y-105675000D03*
%TD*%
D26*
%TO.C,C2*%
X106330000Y-100100000D03*
X106970000Y-100100000D03*
%TD*%
D14*
%TO.C,D2*%
X102500000Y-92675000D03*
X102500000Y-94325000D03*
%TD*%
D10*
%TO.C,D5*%
X94000000Y-107325000D03*
X94000000Y-105675000D03*
%TD*%
D13*
%TO.C,R2*%
X101750000Y-90850000D03*
X101750000Y-89200000D03*
%TD*%
D11*
%TO.C,R4*%
X91500000Y-108925000D03*
X91500000Y-110575000D03*
%TD*%
D27*
%TO.C,C1*%
X97200000Y-100520000D03*
X97200000Y-99880000D03*
%TD*%
D10*
%TO.C,D7*%
X102000000Y-107325000D03*
X102000000Y-105675000D03*
%TD*%
D28*
%TO.C,U2*%
X103900000Y-98650000D03*
X103900000Y-99550000D03*
X103900000Y-100450000D03*
X103900000Y-101350000D03*
X105100000Y-101350000D03*
X105100000Y-100450000D03*
X105100000Y-99550000D03*
X105100000Y-98650000D03*
%TD*%
D26*
%TO.C,R10*%
X106330000Y-98475000D03*
X106970000Y-98475000D03*
%TD*%
D10*
%TO.C,D9*%
X110000000Y-107325000D03*
X110000000Y-105675000D03*
%TD*%
D29*
%TO.C,C3*%
X108970000Y-100100000D03*
X108330000Y-100100000D03*
%TD*%
D14*
%TO.C,D3*%
X107500000Y-92675000D03*
X107500000Y-94325000D03*
%TD*%
D11*
%TO.C,R8*%
X105250000Y-108925000D03*
X105250000Y-110575000D03*
%TD*%
D13*
%TO.C,R0*%
X94250000Y-90850000D03*
X94250000Y-89200000D03*
%TD*%
D10*
%TO.C,D8*%
X106000000Y-107325000D03*
X106000000Y-105675000D03*
%TD*%
D30*
%TO.C,S3*%
X86700000Y-104930000D03*
%TD*%
%TO.C,GND*%
X113300000Y-104930000D03*
%TD*%
%TO.C,UPDI*%
X113300000Y-99850000D03*
%TD*%
%TO.C,S1*%
X86700000Y-99850000D03*
%TD*%
D31*
%TO.C,GS2*%
X106875000Y-111650000D03*
%TD*%
%TO.C,GS1*%
X93125000Y-111650000D03*
%TD*%
D30*
%TO.C,VCC*%
X113300000Y-102390000D03*
%TD*%
%TO.C,S2*%
X86700000Y-102390000D03*
%TD*%
M02*
