M48
; DRILL file {KiCad 9.0.2} date 2025-07-12T02:23:43+0200
; FORMAT={-:-/ absolute / metric / decimal}
; #@! TF.CreationDate,2025-07-12T02:23:43+02:00
; #@! TF.GenerationSoftware,Kicad,Pcbnew,9.0.2
; #@! TF.FileFunction,MixedPlating,1,2
FMAT,2
METRIC
; #@! TA.AperFunction,Plated,PTH,ViaDrill
T1C0.300
; #@! TA.AperFunction,Plated,PTH,ComponentDrill
T2C0.800
; #@! TA.AperFunction,Plated,PTH,ComponentDrill
T3C1.000
%
G90
G05
T1
X88.25Y-99.55
X88.275Y-91.475
X88.8Y-100.95
X89.35Y-101.4
X92.8Y-99.05
X93.125Y-109.75
X95.05Y-111.95
X95.25Y-88.5
X95.525Y-104.9
X100.0Y-88.0
X100.0Y-100.0
X100.0Y-112.925
X104.75Y-88.5
X105.0Y-112.0
X106.875Y-109.75
X107.65Y-98.65
X107.65Y-100.1
X107.65Y-101.35
X109.65Y-100.1
X111.1Y-101.275
X111.1Y-102.675
X111.725Y-91.475
X111.75Y-99.55
T2
X93.125Y-111.65
X106.875Y-111.65
T3
X86.7Y-99.85
X86.7Y-102.39
X86.7Y-104.93
X113.3Y-99.85
X113.3Y-102.39
X113.3Y-104.93
M30
