%TF.GenerationSoftware,KiCad,Pcbnew,9.0.2*%
%TF.CreationDate,2025-07-12T02:23:40+02:00*%
%TF.ProjectId,Clock1.2,436c6f63-6b31-42e3-922e-6b696361645f,rev?*%
%TF.SameCoordinates,Original*%
%TF.FileFunction,Copper,L2,Bot*%
%TF.FilePolarity,Positive*%
%FSLAX46Y46*%
G04 Gerber Fmt 4.6, Leading zero omitted, Abs format (unit mm)*
G04 Created by KiCad (PCBNEW 9.0.2) date 2025-07-12 02:23:40*
%MOMM*%
%LPD*%
G01*
G04 APERTURE LIST*
G04 Aperture macros list*
%AMRoundRect*
0 Rectangle with rounded corners*
0 $1 Rounding radius*
0 $2 $3 $4 $5 $6 $7 $8 $9 X,Y pos of 4 corners*
0 Add a 4 corners polygon primitive as box body*
4,1,4,$2,$3,$4,$5,$6,$7,$8,$9,$2,$3,0*
0 Add four circle primitives for the rounded corners*
1,1,$1+$1,$2,$3*
1,1,$1+$1,$4,$5*
1,1,$1+$1,$6,$7*
1,1,$1+$1,$8,$9*
0 Add four rect primitives between the rounded corners*
20,1,$1+$1,$2,$3,$4,$5,0*
20,1,$1+$1,$4,$5,$6,$7,0*
20,1,$1+$1,$6,$7,$8,$9,0*
20,1,$1+$1,$8,$9,$2,$3,0*%
G04 Aperture macros list end*
%TA.AperFunction,ComponentPad*%
%ADD10C,1.600000*%
%TD*%
%TA.AperFunction,SMDPad,CuDef*%
%ADD11C,4.500000*%
%TD*%
%TA.AperFunction,SMDPad,CuDef*%
%ADD12RoundRect,0.135000X0.315000X1.765000X-0.315000X1.765000X-0.315000X-1.765000X0.315000X-1.765000X0*%
%TD*%
%TA.AperFunction,SMDPad,CuDef*%
%ADD13RoundRect,0.165000X1.635000X0.385000X-1.635000X0.385000X-1.635000X-0.385000X1.635000X-0.385000X0*%
%TD*%
%TA.AperFunction,SMDPad,CuDef*%
%ADD14C,2.400000*%
%TD*%
%TA.AperFunction,ComponentPad*%
%ADD15C,1.400000*%
%TD*%
%TA.AperFunction,SMDPad,CuDef*%
%ADD16RoundRect,0.480000X-1.120000X-2.570000X1.120000X-2.570000X1.120000X2.570000X-1.120000X2.570000X0*%
%TD*%
%TA.AperFunction,SMDPad,CuDef*%
%ADD17C,15.000000*%
%TD*%
%TA.AperFunction,ViaPad*%
%ADD18C,0.500000*%
%TD*%
%TA.AperFunction,ViaPad*%
%ADD19C,0.600000*%
%TD*%
%TA.AperFunction,Conductor*%
%ADD20C,0.200000*%
%TD*%
G04 APERTURE END LIST*
D10*
%TO.P,S3,1,In*%
%TO.N,Net-(S3-In)*%
X86700000Y-104930000D03*
%TD*%
D11*
%TO.P,GS4,1,In*%
%TO.N,GND*%
X90975000Y-108100000D03*
%TD*%
D10*
%TO.P,GND,1,1*%
%TO.N,GND*%
X113300000Y-104930000D03*
%TD*%
%TO.P,UPDI,1,1*%
%TO.N,Net-(U1-~{RESET}{slash}PA0)*%
X113300000Y-99850000D03*
%TD*%
D12*
%TO.P,BackupBT1,1,+*%
%TO.N,Net-(BackupBT1-+)*%
X103400000Y-111175000D03*
D13*
X100000000Y-107525000D03*
D12*
X96600000Y-111175000D03*
D14*
%TO.P,BackupBT1,2,-*%
%TO.N,GND*%
X100000000Y-111175000D03*
%TD*%
D11*
%TO.P,GS3,1,In*%
%TO.N,GND*%
X109025000Y-108100000D03*
%TD*%
D10*
%TO.P,S1,1,In*%
%TO.N,Net-(S1-In)*%
X86700000Y-99850000D03*
%TD*%
D15*
%TO.P,GS2,1,In*%
%TO.N,GND*%
X106875000Y-111650000D03*
%TD*%
%TO.P,GS1,1,In*%
%TO.N,GND*%
X93125000Y-111650000D03*
%TD*%
D10*
%TO.P,VCC,1,1*%
%TO.N,VCC*%
X113300000Y-102390000D03*
%TD*%
%TO.P,S2,1,In*%
%TO.N,Net-(S2-In)*%
X86700000Y-102390000D03*
%TD*%
D16*
%TO.P,BT1,1,+*%
%TO.N,VCC*%
X88250000Y-95500000D03*
X111750000Y-95500000D03*
D17*
%TO.P,BT1,2,-*%
%TO.N,GND*%
X100000000Y-95500000D03*
%TD*%
D18*
%TO.N,VCC*%
X111725000Y-91475000D03*
X88250000Y-99550000D03*
X111750000Y-99550000D03*
X88275000Y-91475000D03*
%TO.N,GND*%
X100000000Y-100000000D03*
X104750000Y-88500000D03*
X107650000Y-100100000D03*
X106875000Y-109750000D03*
X109650000Y-100100000D03*
X107650000Y-98650000D03*
X93125000Y-109750000D03*
X100000000Y-112925000D03*
X95250000Y-88500000D03*
X107650000Y-101350000D03*
X92800000Y-99050000D03*
X100000000Y-88000000D03*
%TO.N,Net-(BackupBT1-+)*%
X95050000Y-111950000D03*
X111100000Y-101275000D03*
X105000000Y-112000000D03*
X111100000Y-102675000D03*
%TO.N,Net-(S1-In)*%
X88800000Y-100950000D03*
%TO.N,Net-(S2-In)*%
X89350000Y-101400000D03*
D19*
%TO.N,Net-(S3-In)*%
X95525000Y-104900000D03*
%TD*%
D20*
%TO.N,VCC*%
X111725000Y-95475000D02*
X111750000Y-95500000D01*
X88250000Y-95500000D02*
X88250000Y-91500000D01*
X111725000Y-91450000D02*
X111750000Y-91475000D01*
X111750000Y-99550000D02*
X111750000Y-95500000D01*
X88250000Y-91500000D02*
X88275000Y-91475000D01*
X88250000Y-99550000D02*
X88250000Y-95500000D01*
X111725000Y-91475000D02*
X111725000Y-95475000D01*
%TO.N,GND*%
X109375000Y-101350000D02*
X107650000Y-101350000D01*
X107650000Y-100100000D02*
X107650000Y-101350000D01*
X109650000Y-101075000D02*
X109375000Y-101350000D01*
X109650000Y-100100000D02*
X109650000Y-101075000D01*
%TO.N,Net-(BackupBT1-+)*%
X105000000Y-112000000D02*
X103300000Y-112000000D01*
X96600000Y-111950000D02*
X96700000Y-112050000D01*
X95050000Y-111950000D02*
X96750000Y-111950000D01*
X103400000Y-111900000D02*
X103300000Y-112000000D01*
X98675000Y-107525000D02*
X100000000Y-107525000D01*
X100000000Y-107525000D02*
X100000000Y-107775000D01*
X100000000Y-107525000D02*
X101500000Y-107525000D01*
X103400000Y-111175000D02*
X103400000Y-111900000D01*
X111100000Y-101275000D02*
X111100000Y-102675000D01*
X96600000Y-111175000D02*
X96600000Y-109600000D01*
X96600000Y-109600000D02*
X98675000Y-107525000D01*
X103400000Y-109425000D02*
X103400000Y-111175000D01*
X96600000Y-111175000D02*
X96600000Y-111950000D01*
%TO.N,Net-(S1-In)*%
X87800000Y-100950000D02*
X86700000Y-99850000D01*
X88800000Y-100950000D02*
X87800000Y-100950000D01*
%TO.N,Net-(S2-In)*%
X89350000Y-101400000D02*
X88360000Y-102390000D01*
X88360000Y-102390000D02*
X86700000Y-102390000D01*
%TO.N,Net-(S3-In)*%
X86730000Y-104900000D02*
X86700000Y-104930000D01*
X95525000Y-104900000D02*
X86730000Y-104900000D01*
%TD*%
%TA.AperFunction,Conductor*%
%TO.N,GND*%
G36*
X100371138Y-85005166D02*
G01*
X101100430Y-85040994D01*
X101106432Y-85041437D01*
X101833082Y-85113005D01*
X101839094Y-85113747D01*
X102543288Y-85218204D01*
X102561343Y-85220883D01*
X102567341Y-85221924D01*
X103283428Y-85364363D01*
X103289332Y-85365688D01*
X103997604Y-85543101D01*
X104003467Y-85544723D01*
X104702179Y-85756675D01*
X104707943Y-85758580D01*
X105395376Y-86004548D01*
X105401039Y-86006732D01*
X106075609Y-86286148D01*
X106081152Y-86288604D01*
X106481272Y-86477847D01*
X106741205Y-86600786D01*
X106746641Y-86603523D01*
X107390538Y-86947693D01*
X107395828Y-86950689D01*
X108022108Y-87326067D01*
X108027202Y-87329293D01*
X108634297Y-87734941D01*
X108639273Y-87738445D01*
X109225728Y-88173390D01*
X109230526Y-88177135D01*
X109794914Y-88640316D01*
X109799522Y-88644291D01*
X110340509Y-89134613D01*
X110344917Y-89138810D01*
X110861189Y-89655082D01*
X110865386Y-89659490D01*
X111355708Y-90200477D01*
X111359683Y-90205085D01*
X111635784Y-90541515D01*
X111663097Y-90605825D01*
X111651306Y-90674693D01*
X111604154Y-90726253D01*
X111564123Y-90741797D01*
X111506092Y-90753340D01*
X111506082Y-90753343D01*
X111369511Y-90809912D01*
X111369498Y-90809919D01*
X111246584Y-90892048D01*
X111246580Y-90892051D01*
X111142051Y-90996580D01*
X111142048Y-90996584D01*
X111059919Y-91119498D01*
X111059912Y-91119511D01*
X111003343Y-91256082D01*
X111003340Y-91256092D01*
X110974500Y-91401079D01*
X110974500Y-91401082D01*
X110974500Y-91548918D01*
X110974500Y-91548920D01*
X110974499Y-91548920D01*
X111003340Y-91693907D01*
X111003343Y-91693917D01*
X111038191Y-91778048D01*
X111045660Y-91847517D01*
X111014384Y-91909996D01*
X110954295Y-91945648D01*
X110923630Y-91949500D01*
X110573127Y-91949500D01*
X110573119Y-91949501D01*
X110456131Y-91959900D01*
X110264410Y-92014759D01*
X110264408Y-92014759D01*
X110264408Y-92014760D01*
X110087655Y-92107088D01*
X110087653Y-92107089D01*
X110087652Y-92107090D01*
X109933105Y-92233105D01*
X109807090Y-92387652D01*
X109714759Y-92564410D01*
X109659900Y-92756131D01*
X109649500Y-92873120D01*
X109649500Y-98126872D01*
X109649501Y-98126880D01*
X109659900Y-98243868D01*
X109659900Y-98243871D01*
X109659901Y-98243872D01*
X109714760Y-98435592D01*
X109807088Y-98612345D01*
X109807090Y-98612347D01*
X109933105Y-98766894D01*
X110025140Y-98841938D01*
X110087655Y-98892912D01*
X110264408Y-98985240D01*
X110456128Y-99040099D01*
X110573119Y-99050500D01*
X110958986Y-99050499D01*
X111026024Y-99070183D01*
X111071779Y-99122987D01*
X111081723Y-99192146D01*
X111073547Y-99221951D01*
X111053614Y-99270073D01*
X111028342Y-99331087D01*
X111028341Y-99331090D01*
X111028341Y-99331091D01*
X111028340Y-99331092D01*
X110999500Y-99476079D01*
X110999500Y-99476082D01*
X110999500Y-99623918D01*
X110999500Y-99623920D01*
X110999499Y-99623920D01*
X111028340Y-99768907D01*
X111028343Y-99768917D01*
X111084912Y-99905488D01*
X111084919Y-99905501D01*
X111167048Y-100028415D01*
X111167051Y-100028419D01*
X111271580Y-100132948D01*
X111271584Y-100132951D01*
X111394498Y-100215080D01*
X111394511Y-100215087D01*
X111531082Y-100271656D01*
X111531087Y-100271658D01*
X111531091Y-100271658D01*
X111531092Y-100271659D01*
X111676079Y-100300500D01*
X111676082Y-100300500D01*
X111823920Y-100300500D01*
X111955708Y-100274285D01*
X112025300Y-100280512D01*
X112080477Y-100323375D01*
X112092491Y-100344917D01*
X112092568Y-100344878D01*
X112093613Y-100346930D01*
X112094464Y-100348455D01*
X112094782Y-100349224D01*
X112144723Y-100447238D01*
X112184090Y-100524500D01*
X112187715Y-100531613D01*
X112308028Y-100697213D01*
X112452786Y-100841971D01*
X112607749Y-100954556D01*
X112618390Y-100962287D01*
X112709840Y-101008883D01*
X112711080Y-101009515D01*
X112761876Y-101057490D01*
X112778671Y-101125311D01*
X112756134Y-101191446D01*
X112711080Y-101230485D01*
X112618386Y-101277715D01*
X112452786Y-101398028D01*
X112308028Y-101542786D01*
X112187715Y-101708386D01*
X112094781Y-101890776D01*
X112031522Y-102085465D01*
X111999788Y-102285826D01*
X111969858Y-102348961D01*
X111910547Y-102385892D01*
X111840684Y-102384894D01*
X111782452Y-102346284D01*
X111773370Y-102334040D01*
X111767132Y-102324450D01*
X111765084Y-102319505D01*
X111720992Y-102253515D01*
X111720555Y-102252844D01*
X111710741Y-102220090D01*
X111700520Y-102187444D01*
X111700506Y-102185928D01*
X111700502Y-102185914D01*
X111700506Y-102185899D01*
X111700500Y-102185232D01*
X111700500Y-101764767D01*
X111720185Y-101697728D01*
X111721398Y-101695876D01*
X111765080Y-101630501D01*
X111765080Y-101630500D01*
X111765084Y-101630495D01*
X111821658Y-101493913D01*
X111850500Y-101348918D01*
X111850500Y-101201082D01*
X111850500Y-101201079D01*
X111821659Y-101056092D01*
X111821658Y-101056091D01*
X111821658Y-101056087D01*
X111816858Y-101044498D01*
X111765087Y-100919511D01*
X111765080Y-100919498D01*
X111682951Y-100796584D01*
X111682948Y-100796580D01*
X111578419Y-100692051D01*
X111578415Y-100692048D01*
X111455501Y-100609919D01*
X111455488Y-100609912D01*
X111318917Y-100553343D01*
X111318907Y-100553340D01*
X111173920Y-100524500D01*
X111173918Y-100524500D01*
X111026082Y-100524500D01*
X111026080Y-100524500D01*
X110881092Y-100553340D01*
X110881082Y-100553343D01*
X110744511Y-100609912D01*
X110744498Y-100609919D01*
X110621584Y-100692048D01*
X110621580Y-100692051D01*
X110517051Y-100796580D01*
X110517048Y-100796584D01*
X110434919Y-100919498D01*
X110434912Y-100919511D01*
X110378343Y-101056082D01*
X110378340Y-101056092D01*
X110349500Y-101201079D01*
X110349500Y-101201082D01*
X110349500Y-101348918D01*
X110349500Y-101348920D01*
X110349499Y-101348920D01*
X110378340Y-101493907D01*
X110378343Y-101493917D01*
X110434912Y-101630488D01*
X110434919Y-101630501D01*
X110478602Y-101695876D01*
X110499480Y-101762553D01*
X110499500Y-101764767D01*
X110499500Y-102185232D01*
X110479815Y-102252271D01*
X110478603Y-102254122D01*
X110434914Y-102319508D01*
X110378343Y-102456082D01*
X110378340Y-102456092D01*
X110349500Y-102601079D01*
X110349500Y-102601082D01*
X110349500Y-102748918D01*
X110349500Y-102748920D01*
X110349499Y-102748920D01*
X110378340Y-102893907D01*
X110378343Y-102893917D01*
X110434912Y-103030488D01*
X110434919Y-103030501D01*
X110517048Y-103153415D01*
X110517051Y-103153419D01*
X110621580Y-103257948D01*
X110621584Y-103257951D01*
X110744498Y-103340080D01*
X110744511Y-103340087D01*
X110845617Y-103381966D01*
X110881087Y-103396658D01*
X110881091Y-103396658D01*
X110881092Y-103396659D01*
X111026079Y-103425500D01*
X111026082Y-103425500D01*
X111173920Y-103425500D01*
X111271462Y-103406096D01*
X111318913Y-103396658D01*
X111455495Y-103340084D01*
X111578416Y-103257951D01*
X111682951Y-103153416D01*
X111765084Y-103030495D01*
X111766707Y-103026578D01*
X111783887Y-102985100D01*
X111821658Y-102893913D01*
X111833243Y-102835668D01*
X111865627Y-102773761D01*
X111926343Y-102739187D01*
X111996112Y-102742926D01*
X112052785Y-102783792D01*
X112072791Y-102821544D01*
X112094781Y-102889223D01*
X112136653Y-102971400D01*
X112182269Y-103060926D01*
X112187715Y-103071613D01*
X112308028Y-103237213D01*
X112452786Y-103381971D01*
X112607749Y-103494556D01*
X112618390Y-103502287D01*
X112711080Y-103549515D01*
X112800776Y-103595218D01*
X112800778Y-103595218D01*
X112800781Y-103595220D01*
X112905137Y-103629127D01*
X112995465Y-103658477D01*
X113014697Y-103661523D01*
X113197648Y-103690500D01*
X113197649Y-103690500D01*
X113402351Y-103690500D01*
X113402352Y-103690500D01*
X113604534Y-103658477D01*
X113799219Y-103595220D01*
X113981610Y-103502287D01*
X114126996Y-103396659D01*
X114147213Y-103381971D01*
X114147215Y-103381968D01*
X114147219Y-103381966D01*
X114291966Y-103237219D01*
X114291968Y-103237215D01*
X114291971Y-103237213D01*
X114412284Y-103071614D01*
X114412286Y-103071611D01*
X114412287Y-103071610D01*
X114440783Y-103015682D01*
X114453472Y-103002247D01*
X114462036Y-102985876D01*
X114476960Y-102977376D01*
X114488757Y-102964887D01*
X114506694Y-102960445D01*
X114522752Y-102951301D01*
X114539906Y-102952220D01*
X114556578Y-102948092D01*
X114574066Y-102954051D01*
X114592521Y-102955041D01*
X114606454Y-102965088D01*
X114622713Y-102970629D01*
X114634205Y-102985100D01*
X114649193Y-102995908D01*
X114655481Y-103011891D01*
X114666165Y-103025344D01*
X114668009Y-103043732D01*
X114674774Y-103060926D01*
X114673018Y-103093675D01*
X114673138Y-103094865D01*
X114672885Y-103096169D01*
X114635640Y-103283410D01*
X114634307Y-103289349D01*
X114456898Y-103997604D01*
X114455275Y-104003469D01*
X114243326Y-104702172D01*
X114241416Y-104707951D01*
X113995454Y-105395368D01*
X113993264Y-105401047D01*
X113713856Y-106075598D01*
X113711390Y-106081162D01*
X113399213Y-106741205D01*
X113396476Y-106746641D01*
X113052306Y-107390538D01*
X113049306Y-107395834D01*
X112673947Y-108022084D01*
X112670691Y-108027226D01*
X112265058Y-108634297D01*
X112261554Y-108639273D01*
X111826609Y-109225728D01*
X111822864Y-109230526D01*
X111359683Y-109794914D01*
X111355708Y-109799522D01*
X110865386Y-110340509D01*
X110861189Y-110344917D01*
X110344917Y-110861189D01*
X110340509Y-110865386D01*
X109799522Y-111355708D01*
X109794914Y-111359683D01*
X109230526Y-111822864D01*
X109225728Y-111826609D01*
X108639273Y-112261554D01*
X108634297Y-112265058D01*
X108027226Y-112670691D01*
X108022084Y-112673947D01*
X107395834Y-113049306D01*
X107390538Y-113052306D01*
X106746641Y-113396476D01*
X106741205Y-113399213D01*
X106081162Y-113711390D01*
X106075598Y-113713856D01*
X105401047Y-113993264D01*
X105395368Y-113995454D01*
X104707951Y-114241416D01*
X104702172Y-114243326D01*
X104003469Y-114455275D01*
X103997604Y-114456898D01*
X103289349Y-114634307D01*
X103283410Y-114635640D01*
X102567339Y-114778075D01*
X102561343Y-114779116D01*
X101839108Y-114886250D01*
X101833067Y-114886995D01*
X101106466Y-114958559D01*
X101100396Y-114959007D01*
X100371139Y-114994833D01*
X100365055Y-114994982D01*
X99634945Y-114994982D01*
X99628861Y-114994833D01*
X98899603Y-114959007D01*
X98893533Y-114958559D01*
X98166932Y-114886995D01*
X98160891Y-114886250D01*
X97438656Y-114779116D01*
X97432660Y-114778075D01*
X96716589Y-114635640D01*
X96710650Y-114634307D01*
X96002395Y-114456898D01*
X95996530Y-114455275D01*
X95297827Y-114243326D01*
X95292048Y-114241416D01*
X94604631Y-113995454D01*
X94598952Y-113993264D01*
X93924401Y-113713856D01*
X93918837Y-113711390D01*
X93258794Y-113399213D01*
X93253358Y-113396476D01*
X92609461Y-113052306D01*
X92604165Y-113049306D01*
X92387650Y-112919532D01*
X91977902Y-112673938D01*
X91972787Y-112670699D01*
X91426220Y-112305495D01*
X91365702Y-112265058D01*
X91360726Y-112261554D01*
X91040314Y-112023920D01*
X94299499Y-112023920D01*
X94328340Y-112168907D01*
X94328343Y-112168917D01*
X94384912Y-112305488D01*
X94384919Y-112305501D01*
X94467048Y-112428415D01*
X94467051Y-112428419D01*
X94571580Y-112532948D01*
X94571584Y-112532951D01*
X94694498Y-112615080D01*
X94694511Y-112615087D01*
X94796812Y-112657461D01*
X94831087Y-112671658D01*
X94831091Y-112671658D01*
X94831092Y-112671659D01*
X94976079Y-112700500D01*
X94976082Y-112700500D01*
X95123920Y-112700500D01*
X95221462Y-112681096D01*
X95268913Y-112671658D01*
X95405495Y-112615084D01*
X95456611Y-112580929D01*
X95523287Y-112560052D01*
X95590667Y-112578536D01*
X95637357Y-112630514D01*
X95649501Y-112684032D01*
X95649501Y-113004193D01*
X95652335Y-113040204D01*
X95697129Y-113194388D01*
X95697131Y-113194393D01*
X95778863Y-113332595D01*
X95778869Y-113332603D01*
X95892396Y-113446130D01*
X95892400Y-113446133D01*
X95892402Y-113446135D01*
X96030607Y-113527869D01*
X96071268Y-113539682D01*
X96184791Y-113572664D01*
X96184794Y-113572664D01*
X96184796Y-113572665D01*
X96220819Y-113575500D01*
X96979180Y-113575499D01*
X97015204Y-113572665D01*
X97169393Y-113527869D01*
X97307598Y-113446135D01*
X97421135Y-113332598D01*
X97502869Y-113194393D01*
X97547665Y-113040204D01*
X97550500Y-113004181D01*
X97550499Y-109550096D01*
X97570184Y-109483058D01*
X97586818Y-109462416D01*
X97703423Y-109345811D01*
X102449500Y-109345811D01*
X102449500Y-113004168D01*
X102449501Y-113004193D01*
X102452335Y-113040204D01*
X102497129Y-113194388D01*
X102497131Y-113194393D01*
X102578863Y-113332595D01*
X102578869Y-113332603D01*
X102692396Y-113446130D01*
X102692400Y-113446133D01*
X102692402Y-113446135D01*
X102830607Y-113527869D01*
X102871268Y-113539682D01*
X102984791Y-113572664D01*
X102984794Y-113572664D01*
X102984796Y-113572665D01*
X103020819Y-113575500D01*
X103779180Y-113575499D01*
X103815204Y-113572665D01*
X103969393Y-113527869D01*
X104107598Y-113446135D01*
X104221135Y-113332598D01*
X104302869Y-113194393D01*
X104347665Y-113040204D01*
X104350500Y-113004181D01*
X104350500Y-112724500D01*
X104353050Y-112715814D01*
X104351762Y-112706853D01*
X104362740Y-112682812D01*
X104370185Y-112657461D01*
X104377025Y-112651533D01*
X104380787Y-112643297D01*
X104403021Y-112629007D01*
X104422989Y-112611706D01*
X104433503Y-112609418D01*
X104439565Y-112605523D01*
X104474500Y-112600500D01*
X104510233Y-112600500D01*
X104577272Y-112620185D01*
X104579124Y-112621398D01*
X104644498Y-112665080D01*
X104644511Y-112665087D01*
X104745344Y-112706853D01*
X104781087Y-112721658D01*
X104781091Y-112721658D01*
X104781092Y-112721659D01*
X104926079Y-112750500D01*
X104926082Y-112750500D01*
X105073920Y-112750500D01*
X105171462Y-112731096D01*
X105218913Y-112721658D01*
X105334098Y-112673947D01*
X105355488Y-112665087D01*
X105355488Y-112665086D01*
X105355495Y-112665084D01*
X105478416Y-112582951D01*
X105582951Y-112478416D01*
X105665084Y-112355495D01*
X105721658Y-112218913D01*
X105750500Y-112073918D01*
X105750500Y-111926082D01*
X105750500Y-111926079D01*
X105721659Y-111781092D01*
X105721658Y-111781091D01*
X105721658Y-111781087D01*
X105721656Y-111781082D01*
X105665087Y-111644511D01*
X105665080Y-111644498D01*
X105582951Y-111521584D01*
X105582948Y-111521580D01*
X105478419Y-111417051D01*
X105478415Y-111417048D01*
X105355501Y-111334919D01*
X105355488Y-111334912D01*
X105218917Y-111278343D01*
X105218907Y-111278340D01*
X105073920Y-111249500D01*
X105073918Y-111249500D01*
X104926082Y-111249500D01*
X104926080Y-111249500D01*
X104781092Y-111278340D01*
X104781082Y-111278343D01*
X104644511Y-111334912D01*
X104644498Y-111334919D01*
X104579124Y-111378602D01*
X104561077Y-111384252D01*
X104545168Y-111394477D01*
X104514208Y-111398928D01*
X104512447Y-111399480D01*
X104510233Y-111399500D01*
X104474500Y-111399500D01*
X104407461Y-111379815D01*
X104361706Y-111327011D01*
X104350500Y-111275500D01*
X104350499Y-109345831D01*
X104350498Y-109345806D01*
X104350217Y-109342236D01*
X104347665Y-109309796D01*
X104302869Y-109155607D01*
X104221135Y-109017402D01*
X104221133Y-109017400D01*
X104221130Y-109017396D01*
X104107603Y-108903869D01*
X104107595Y-108903863D01*
X103969393Y-108822131D01*
X103969388Y-108822129D01*
X103815208Y-108777335D01*
X103815202Y-108777334D01*
X103779181Y-108774500D01*
X103020831Y-108774500D01*
X103020806Y-108774501D01*
X102984795Y-108777335D01*
X102830611Y-108822129D01*
X102830606Y-108822131D01*
X102692404Y-108903863D01*
X102692396Y-108903869D01*
X102578869Y-109017396D01*
X102578863Y-109017404D01*
X102497131Y-109155606D01*
X102497129Y-109155611D01*
X102452335Y-109309791D01*
X102452334Y-109309797D01*
X102449500Y-109345811D01*
X97703423Y-109345811D01*
X97793531Y-109255703D01*
X98031831Y-109017404D01*
X98437416Y-108611819D01*
X98498739Y-108578334D01*
X98525097Y-108575500D01*
X101688787Y-108575500D01*
X101688790Y-108575500D01*
X101755841Y-108569407D01*
X101910136Y-108521327D01*
X102048441Y-108437718D01*
X102162718Y-108323441D01*
X102246327Y-108185136D01*
X102294407Y-108030841D01*
X102300500Y-107963790D01*
X102300500Y-107086210D01*
X102294407Y-107019159D01*
X102246327Y-106864864D01*
X102162718Y-106726559D01*
X102162716Y-106726557D01*
X102162715Y-106726555D01*
X102048444Y-106612284D01*
X101910136Y-106528673D01*
X101773247Y-106486017D01*
X101755841Y-106480593D01*
X101755839Y-106480592D01*
X101755837Y-106480592D01*
X101708892Y-106476326D01*
X101688790Y-106474500D01*
X98311210Y-106474500D01*
X98292934Y-106476160D01*
X98244162Y-106480592D01*
X98089863Y-106528673D01*
X97951555Y-106612284D01*
X97837284Y-106726555D01*
X97753673Y-106864863D01*
X97705592Y-107019162D01*
X97699500Y-107086212D01*
X97699500Y-107599902D01*
X97679815Y-107666941D01*
X97663181Y-107687583D01*
X96612582Y-108738181D01*
X96551259Y-108771666D01*
X96524901Y-108774500D01*
X96220830Y-108774500D01*
X96220808Y-108774501D01*
X96184794Y-108777335D01*
X96030611Y-108822129D01*
X96030606Y-108822131D01*
X95892404Y-108903863D01*
X95892396Y-108903869D01*
X95778869Y-109017396D01*
X95778863Y-109017404D01*
X95697131Y-109155606D01*
X95697129Y-109155611D01*
X95652335Y-109309791D01*
X95652334Y-109309797D01*
X95649500Y-109345811D01*
X95649500Y-111215967D01*
X95629815Y-111283006D01*
X95577011Y-111328761D01*
X95507853Y-111338705D01*
X95456609Y-111319069D01*
X95405501Y-111284919D01*
X95405488Y-111284912D01*
X95268917Y-111228343D01*
X95268907Y-111228340D01*
X95123920Y-111199500D01*
X95123918Y-111199500D01*
X94976082Y-111199500D01*
X94976080Y-111199500D01*
X94831092Y-111228340D01*
X94831082Y-111228343D01*
X94694511Y-111284912D01*
X94694498Y-111284919D01*
X94571584Y-111367048D01*
X94571580Y-111367051D01*
X94467051Y-111471580D01*
X94467048Y-111471584D01*
X94384919Y-111594498D01*
X94384912Y-111594511D01*
X94328343Y-111731082D01*
X94328340Y-111731092D01*
X94299500Y-111876079D01*
X94299500Y-111876082D01*
X94299500Y-112023918D01*
X94299500Y-112023920D01*
X94299499Y-112023920D01*
X91040314Y-112023920D01*
X90967056Y-111969588D01*
X90774271Y-111826609D01*
X90769473Y-111822864D01*
X90205085Y-111359683D01*
X90200477Y-111355708D01*
X89659490Y-110865386D01*
X89655082Y-110861189D01*
X89138810Y-110344917D01*
X89134613Y-110340509D01*
X88644291Y-109799522D01*
X88640316Y-109794914D01*
X88177135Y-109230526D01*
X88173390Y-109225728D01*
X87738445Y-108639273D01*
X87734941Y-108634297D01*
X87603589Y-108437715D01*
X87329293Y-108027202D01*
X87326067Y-108022108D01*
X86950689Y-107395828D01*
X86947693Y-107390538D01*
X86785027Y-107086212D01*
X86603522Y-106746639D01*
X86600786Y-106741205D01*
X86480091Y-106486017D01*
X86440303Y-106401892D01*
X86429436Y-106332876D01*
X86457607Y-106268937D01*
X86515874Y-106230379D01*
X86571795Y-106226405D01*
X86597648Y-106230500D01*
X86597651Y-106230500D01*
X86802351Y-106230500D01*
X86802352Y-106230500D01*
X87004534Y-106198477D01*
X87199219Y-106135220D01*
X87381610Y-106042287D01*
X87474590Y-105974732D01*
X87547213Y-105921971D01*
X87547215Y-105921968D01*
X87547219Y-105921966D01*
X87691966Y-105777219D01*
X87812287Y-105611610D01*
X87834402Y-105568205D01*
X87882376Y-105517409D01*
X87944887Y-105500500D01*
X94945234Y-105500500D01*
X95012273Y-105520185D01*
X95014125Y-105521398D01*
X95145814Y-105609390D01*
X95145827Y-105609397D01*
X95291498Y-105669735D01*
X95291503Y-105669737D01*
X95446153Y-105700499D01*
X95446156Y-105700500D01*
X95446158Y-105700500D01*
X95603844Y-105700500D01*
X95603845Y-105700499D01*
X95758497Y-105669737D01*
X95904179Y-105609394D01*
X96035289Y-105521789D01*
X96146789Y-105410289D01*
X96234394Y-105279179D01*
X96294737Y-105133497D01*
X96325500Y-104978842D01*
X96325500Y-104821158D01*
X96325500Y-104821155D01*
X96325499Y-104821153D01*
X96294737Y-104666503D01*
X96294735Y-104666498D01*
X96234397Y-104520827D01*
X96234390Y-104520814D01*
X96146789Y-104389711D01*
X96146786Y-104389707D01*
X96035292Y-104278213D01*
X96035288Y-104278210D01*
X95904185Y-104190609D01*
X95904172Y-104190602D01*
X95758501Y-104130264D01*
X95758489Y-104130261D01*
X95603845Y-104099500D01*
X95603842Y-104099500D01*
X95446158Y-104099500D01*
X95446155Y-104099500D01*
X95291510Y-104130261D01*
X95291498Y-104130264D01*
X95145827Y-104190602D01*
X95145814Y-104190609D01*
X95014125Y-104278602D01*
X94947447Y-104299480D01*
X94945234Y-104299500D01*
X87912602Y-104299500D01*
X87845563Y-104279815D01*
X87812284Y-104248385D01*
X87691971Y-104082786D01*
X87547213Y-103938028D01*
X87381614Y-103817715D01*
X87375006Y-103814348D01*
X87288917Y-103770483D01*
X87238123Y-103722511D01*
X87221328Y-103654690D01*
X87243865Y-103588555D01*
X87288917Y-103549516D01*
X87381610Y-103502287D01*
X87402770Y-103486913D01*
X87547213Y-103381971D01*
X87547215Y-103381968D01*
X87547219Y-103381966D01*
X87691966Y-103237219D01*
X87691968Y-103237215D01*
X87691971Y-103237213D01*
X87812284Y-103071614D01*
X87812286Y-103071611D01*
X87812287Y-103071610D01*
X87819117Y-103058204D01*
X87867091Y-103007409D01*
X87929602Y-102990500D01*
X88273331Y-102990500D01*
X88273347Y-102990501D01*
X88280943Y-102990501D01*
X88439054Y-102990501D01*
X88439057Y-102990501D01*
X88591785Y-102949577D01*
X88665904Y-102906784D01*
X88728716Y-102870520D01*
X88840520Y-102758716D01*
X88840520Y-102758714D01*
X88850724Y-102748511D01*
X88850728Y-102748506D01*
X89428301Y-102170932D01*
X89489622Y-102137449D01*
X89491644Y-102137027D01*
X89568913Y-102121658D01*
X89705495Y-102065084D01*
X89828416Y-101982951D01*
X89932951Y-101878416D01*
X90015084Y-101755495D01*
X90071658Y-101618913D01*
X90100500Y-101473918D01*
X90100500Y-101326082D01*
X90100500Y-101326079D01*
X90071659Y-101181092D01*
X90071658Y-101181091D01*
X90071658Y-101181087D01*
X90040749Y-101106466D01*
X90015087Y-101044511D01*
X90015080Y-101044498D01*
X89932951Y-100921584D01*
X89932948Y-100921580D01*
X89828419Y-100817051D01*
X89828415Y-100817048D01*
X89705501Y-100734919D01*
X89705488Y-100734912D01*
X89568917Y-100678343D01*
X89568908Y-100678340D01*
X89558609Y-100676292D01*
X89496698Y-100643906D01*
X89468240Y-100602125D01*
X89465084Y-100594505D01*
X89437580Y-100553343D01*
X89382954Y-100471588D01*
X89382948Y-100471580D01*
X89278419Y-100367051D01*
X89278415Y-100367048D01*
X89155501Y-100284919D01*
X89155488Y-100284912D01*
X89018917Y-100228343D01*
X89018907Y-100228340D01*
X88918866Y-100208440D01*
X88856955Y-100176054D01*
X88822381Y-100115338D01*
X88826122Y-100045569D01*
X88839956Y-100017932D01*
X88915080Y-99905501D01*
X88915080Y-99905500D01*
X88915084Y-99905495D01*
X88971658Y-99768913D01*
X88998307Y-99634945D01*
X89000500Y-99623920D01*
X89000500Y-99476079D01*
X88971659Y-99331092D01*
X88971658Y-99331091D01*
X88971658Y-99331087D01*
X88971656Y-99331082D01*
X88926453Y-99221951D01*
X88918984Y-99152482D01*
X88950259Y-99090003D01*
X89010348Y-99054351D01*
X89041014Y-99050499D01*
X89426872Y-99050499D01*
X89426880Y-99050499D01*
X89543872Y-99040099D01*
X89735592Y-98985240D01*
X89912345Y-98892912D01*
X90066894Y-98766894D01*
X90192912Y-98612345D01*
X90285240Y-98435592D01*
X90340099Y-98243872D01*
X90350500Y-98126881D01*
X90350499Y-92873120D01*
X90340099Y-92756128D01*
X90285240Y-92564408D01*
X90192912Y-92387655D01*
X90141938Y-92325140D01*
X90066894Y-92233105D01*
X89912347Y-92107090D01*
X89912348Y-92107090D01*
X89912345Y-92107088D01*
X89735592Y-92014760D01*
X89543872Y-91959901D01*
X89543871Y-91959900D01*
X89543868Y-91959900D01*
X89452179Y-91951749D01*
X89426881Y-91949500D01*
X89426879Y-91949500D01*
X89076370Y-91949500D01*
X89009331Y-91929815D01*
X88963576Y-91877011D01*
X88953632Y-91807853D01*
X88961809Y-91778048D01*
X88996656Y-91693917D01*
X88996658Y-91693913D01*
X89025500Y-91548918D01*
X89025500Y-91401082D01*
X89025500Y-91401079D01*
X88996659Y-91256092D01*
X88996658Y-91256091D01*
X88996658Y-91256087D01*
X88996656Y-91256082D01*
X88940087Y-91119511D01*
X88940080Y-91119498D01*
X88857951Y-90996584D01*
X88857948Y-90996580D01*
X88753419Y-90892051D01*
X88753415Y-90892048D01*
X88630501Y-90809919D01*
X88630488Y-90809912D01*
X88493917Y-90753343D01*
X88493907Y-90753340D01*
X88435876Y-90741797D01*
X88373965Y-90709412D01*
X88339391Y-90648696D01*
X88343132Y-90578926D01*
X88364213Y-90541518D01*
X88640328Y-90205071D01*
X88644278Y-90200491D01*
X89134633Y-89659468D01*
X89138790Y-89655102D01*
X89655102Y-89138790D01*
X89659468Y-89134633D01*
X90200491Y-88644278D01*
X90205071Y-88640328D01*
X90769488Y-88177122D01*
X90774255Y-88173401D01*
X91360749Y-87738428D01*
X91365678Y-87734957D01*
X91972815Y-87329280D01*
X91977872Y-87326078D01*
X92604188Y-86950679D01*
X92609436Y-86947706D01*
X93253376Y-86603513D01*
X93258775Y-86600795D01*
X93918862Y-86288597D01*
X93924375Y-86286154D01*
X94598973Y-86006726D01*
X94604609Y-86004553D01*
X95292068Y-85758576D01*
X95297808Y-85756679D01*
X95996542Y-85544720D01*
X96002383Y-85543104D01*
X96710676Y-85365686D01*
X96716563Y-85364364D01*
X97432665Y-85221923D01*
X97438650Y-85220883D01*
X98160910Y-85113746D01*
X98166912Y-85113006D01*
X98893570Y-85041437D01*
X98899566Y-85040994D01*
X99628861Y-85005166D01*
X99634945Y-85005018D01*
X100365055Y-85005018D01*
X100371138Y-85005166D01*
G37*
%TD.AperFunction*%
%TD*%
M02*
