%TF.GenerationSoftware,KiCad,Pcbnew,9.0.2*%
%TF.CreationDate,2025-07-12T02:23:40+02:00*%
%TF.ProjectId,Clock1.2,436c6f63-6b31-42e3-922e-6b696361645f,rev?*%
%TF.SameCoordinates,Original*%
%TF.FileFunction,Copper,L1,Top*%
%TF.FilePolarity,Positive*%
%FSLAX46Y46*%
G04 Gerber Fmt 4.6, Leading zero omitted, Abs format (unit mm)*
G04 Created by KiCad (PCBNEW 9.0.2) date 2025-07-12 02:23:40*
%MOMM*%
%LPD*%
G01*
G04 APERTURE LIST*
G04 Aperture macros list*
%AMRoundRect*
0 Rectangle with rounded corners*
0 $1 Rounding radius*
0 $2 $3 $4 $5 $6 $7 $8 $9 X,Y pos of 4 corners*
0 Add a 4 corners polygon primitive as box body*
4,1,4,$2,$3,$4,$5,$6,$7,$8,$9,$2,$3,0*
0 Add four circle primitives for the rounded corners*
1,1,$1+$1,$2,$3*
1,1,$1+$1,$4,$5*
1,1,$1+$1,$6,$7*
1,1,$1+$1,$8,$9*
0 Add four rect primitives between the rounded corners*
20,1,$1+$1,$2,$3,$4,$5,0*
20,1,$1+$1,$4,$5,$6,$7,0*
20,1,$1+$1,$6,$7,$8,$9,0*
20,1,$1+$1,$8,$9,$2,$3,0*%
%AMFreePoly0*
4,1,14,0.334644,0.085355,0.385355,0.034644,0.400000,-0.000711,0.400000,-0.050000,0.385355,-0.085355,0.350000,-0.100000,-0.350000,-0.100000,-0.385355,-0.085355,-0.400000,-0.050000,-0.400000,0.050000,-0.385355,0.085355,-0.350000,0.100000,0.299289,0.100000,0.334644,0.085355,0.334644,0.085355,$1*%
%AMFreePoly1*
4,1,14,0.385355,0.085355,0.400000,0.050000,0.400000,0.000711,0.385355,-0.034644,0.334644,-0.085355,0.299289,-0.100000,-0.350000,-0.100000,-0.385355,-0.085355,-0.400000,-0.050000,-0.400000,0.050000,-0.385355,0.085355,-0.350000,0.100000,0.350000,0.100000,0.385355,0.085355,0.385355,0.085355,$1*%
%AMFreePoly2*
4,1,14,0.085355,0.385355,0.100000,0.350000,0.100000,-0.350000,0.085355,-0.385355,0.050000,-0.400000,-0.050000,-0.400000,-0.085355,-0.385355,-0.100000,-0.350000,-0.100000,0.299289,-0.085355,0.334644,-0.034644,0.385355,0.000711,0.400000,0.050000,0.400000,0.085355,0.385355,0.085355,0.385355,$1*%
%AMFreePoly3*
4,1,14,0.034644,0.385355,0.085355,0.334644,0.100000,0.299289,0.100000,-0.350000,0.085355,-0.385355,0.050000,-0.400000,-0.050000,-0.400000,-0.085355,-0.385355,-0.100000,-0.350000,-0.100000,0.350000,-0.085355,0.385355,-0.050000,0.400000,-0.000711,0.400000,0.034644,0.385355,0.034644,0.385355,$1*%
%AMFreePoly4*
4,1,14,0.385355,0.085355,0.400000,0.050000,0.400000,-0.050000,0.385355,-0.085355,0.350000,-0.100000,-0.299289,-0.100000,-0.334644,-0.085355,-0.385355,-0.034644,-0.400000,0.000711,-0.400000,0.050000,-0.385355,0.085355,-0.350000,0.100000,0.350000,0.100000,0.385355,0.085355,0.385355,0.085355,$1*%
%AMFreePoly5*
4,1,14,0.385355,0.085355,0.400000,0.050000,0.400000,-0.050000,0.385355,-0.085355,0.350000,-0.100000,-0.350000,-0.100000,-0.385355,-0.085355,-0.400000,-0.050000,-0.400000,-0.000711,-0.385355,0.034644,-0.334644,0.085355,-0.299289,0.100000,0.350000,0.100000,0.385355,0.085355,0.385355,0.085355,$1*%
%AMFreePoly6*
4,1,14,0.085355,0.385355,0.100000,0.350000,0.100000,-0.299289,0.085355,-0.334644,0.034644,-0.385355,-0.000711,-0.400000,-0.050000,-0.400000,-0.085355,-0.385355,-0.100000,-0.350000,-0.100000,0.350000,-0.085355,0.385355,-0.050000,0.400000,0.050000,0.400000,0.085355,0.385355,0.085355,0.385355,$1*%
%AMFreePoly7*
4,1,14,0.085355,0.385355,0.100000,0.350000,0.100000,-0.350000,0.085355,-0.385355,0.050000,-0.400000,0.000711,-0.400000,-0.034644,-0.385355,-0.085355,-0.334644,-0.100000,-0.299289,-0.100000,0.350000,-0.085355,0.385355,-0.050000,0.400000,0.050000,0.400000,0.085355,0.385355,0.085355,0.385355,$1*%
G04 Aperture macros list end*
%TA.AperFunction,Conductor*%
%ADD10C,0.200000*%
%TD*%
%TA.AperFunction,SMDPad,CuDef*%
%ADD11RoundRect,0.112500X0.437500X-0.262500X0.437500X0.262500X-0.437500X0.262500X-0.437500X-0.262500X0*%
%TD*%
%TA.AperFunction,SMDPad,CuDef*%
%ADD12RoundRect,0.200000X-0.275000X0.200000X-0.275000X-0.200000X0.275000X-0.200000X0.275000X0.200000X0*%
%TD*%
%TA.AperFunction,SMDPad,CuDef*%
%ADD13RoundRect,0.200000X0.200000X0.275000X-0.200000X0.275000X-0.200000X-0.275000X0.200000X-0.275000X0*%
%TD*%
%TA.AperFunction,SMDPad,CuDef*%
%ADD14RoundRect,0.200000X0.275000X-0.200000X0.275000X0.200000X-0.275000X0.200000X-0.275000X-0.200000X0*%
%TD*%
%TA.AperFunction,SMDPad,CuDef*%
%ADD15RoundRect,0.112500X-0.437500X0.262500X-0.437500X-0.262500X0.437500X-0.262500X0.437500X0.262500X0*%
%TD*%
%TA.AperFunction,SMDPad,CuDef*%
%ADD16FreePoly0,0.000000*%
%TD*%
%TA.AperFunction,SMDPad,CuDef*%
%ADD17RoundRect,0.050000X-0.350000X-0.050000X0.350000X-0.050000X0.350000X0.050000X-0.350000X0.050000X0*%
%TD*%
%TA.AperFunction,SMDPad,CuDef*%
%ADD18FreePoly1,0.000000*%
%TD*%
%TA.AperFunction,SMDPad,CuDef*%
%ADD19FreePoly2,0.000000*%
%TD*%
%TA.AperFunction,SMDPad,CuDef*%
%ADD20RoundRect,0.050000X-0.050000X-0.350000X0.050000X-0.350000X0.050000X0.350000X-0.050000X0.350000X0*%
%TD*%
%TA.AperFunction,SMDPad,CuDef*%
%ADD21FreePoly3,0.000000*%
%TD*%
%TA.AperFunction,SMDPad,CuDef*%
%ADD22FreePoly4,0.000000*%
%TD*%
%TA.AperFunction,SMDPad,CuDef*%
%ADD23FreePoly5,0.000000*%
%TD*%
%TA.AperFunction,SMDPad,CuDef*%
%ADD24FreePoly6,0.000000*%
%TD*%
%TA.AperFunction,SMDPad,CuDef*%
%ADD25FreePoly7,0.000000*%
%TD*%
%TA.AperFunction,HeatsinkPad*%
%ADD26R,1.700000X1.700000*%
%TD*%
%TA.AperFunction,SMDPad,CuDef*%
%ADD27RoundRect,0.100000X-0.130000X-0.100000X0.130000X-0.100000X0.130000X0.100000X-0.130000X0.100000X0*%
%TD*%
%TA.AperFunction,SMDPad,CuDef*%
%ADD28RoundRect,0.100000X0.100000X-0.130000X0.100000X0.130000X-0.100000X0.130000X-0.100000X-0.130000X0*%
%TD*%
%TA.AperFunction,SMDPad,CuDef*%
%ADD29RoundRect,0.125000X-0.275000X-0.125000X0.275000X-0.125000X0.275000X0.125000X-0.275000X0.125000X0*%
%TD*%
%TA.AperFunction,SMDPad,CuDef*%
%ADD30RoundRect,0.100000X0.130000X0.100000X-0.130000X0.100000X-0.130000X-0.100000X0.130000X-0.100000X0*%
%TD*%
%TA.AperFunction,ComponentPad*%
%ADD31C,1.600000*%
%TD*%
%TA.AperFunction,ComponentPad*%
%ADD32C,1.400000*%
%TD*%
%TA.AperFunction,ViaPad*%
%ADD33C,0.500000*%
%TD*%
%TA.AperFunction,ViaPad*%
%ADD34C,0.600000*%
%TD*%
%TA.AperFunction,Conductor*%
%ADD35C,0.100000*%
%TD*%
G04 APERTURE END LIST*
D10*
%TO.N,VCC*%
X88275000Y-91475000D02*
G75*
G02*
X111721761Y-91470548I11725000J-8525000D01*
G01*
%TO.N,Net-(BackupBT1-+)*%
X111100000Y-109450000D02*
G75*
G02*
X95051262Y-113712129I-11100000J9450000D01*
G01*
%TD*%
D11*
%TO.P,D4,1,K*%
%TO.N,Net-(D4-K)*%
X90000000Y-107325000D03*
%TO.P,D4,2,A*%
%TO.N,Net-(D4-A)*%
X90000000Y-105675000D03*
%TD*%
D12*
%TO.P,R7,1*%
%TO.N,Net-(D7-K)*%
X101625000Y-108925000D03*
%TO.P,R7,2*%
%TO.N,GND*%
X101625000Y-110575000D03*
%TD*%
%TO.P,R5,1*%
%TO.N,Net-(D5-K)*%
X94750000Y-108925000D03*
%TO.P,R5,2*%
%TO.N,GND*%
X94750000Y-110575000D03*
%TD*%
D13*
%TO.P,R11,1*%
%TO.N,VCC*%
X105325000Y-97050000D03*
%TO.P,R11,2*%
%TO.N,Net-(U1-PB0)*%
X103675000Y-97050000D03*
%TD*%
D12*
%TO.P,R9,1*%
%TO.N,Net-(D9-K)*%
X108500000Y-108925000D03*
%TO.P,R9,2*%
%TO.N,GND*%
X108500000Y-110575000D03*
%TD*%
%TO.P,R6,1*%
%TO.N,Net-(D6-K)*%
X98375000Y-108925000D03*
%TO.P,R6,2*%
%TO.N,GND*%
X98375000Y-110575000D03*
%TD*%
D14*
%TO.P,R3,1*%
%TO.N,Net-(D3-K)*%
X105750000Y-90850000D03*
%TO.P,R3,2*%
%TO.N,GND*%
X105750000Y-89200000D03*
%TD*%
%TO.P,R1,1*%
%TO.N,Net-(D1-K)*%
X98250000Y-90850000D03*
%TO.P,R1,2*%
%TO.N,GND*%
X98250000Y-89200000D03*
%TD*%
D15*
%TO.P,D1,1,K*%
%TO.N,Net-(D1-K)*%
X97500000Y-92675000D03*
%TO.P,D1,2,A*%
%TO.N,Net-(D1-A)*%
X97500000Y-94325000D03*
%TD*%
D16*
%TO.P,U1,1,PA2*%
%TO.N,Net-(S1-In)*%
X98550000Y-99200000D03*
D17*
%TO.P,U1,2,PA3*%
%TO.N,Net-(S2-In)*%
X98550000Y-99600000D03*
%TO.P,U1,3,GND*%
%TO.N,GND*%
X98550000Y-100000000D03*
%TO.P,U1,4,VCC*%
%TO.N,VCC*%
X98550000Y-100400000D03*
D18*
%TO.P,U1,5,PA4*%
%TO.N,Net-(D4-A)*%
X98550000Y-100800000D03*
D19*
%TO.P,U1,6,PA5*%
%TO.N,Net-(D5-A)*%
X99200000Y-101450000D03*
D20*
%TO.P,U1,7,PA6*%
%TO.N,Net-(S3-In)*%
X99600000Y-101450000D03*
%TO.P,U1,8,PA7*%
%TO.N,Net-(D6-A)*%
X100000000Y-101450000D03*
%TO.P,U1,9,PB5*%
%TO.N,Net-(D7-A)*%
X100400000Y-101450000D03*
D21*
%TO.P,U1,10,PB4*%
%TO.N,Net-(D8-A)*%
X100800000Y-101450000D03*
D22*
%TO.P,U1,11,PB3*%
%TO.N,Net-(D9-A)*%
X101450000Y-100800000D03*
D17*
%TO.P,U1,12,PB2*%
%TO.N,unconnected-(U1-PB2-Pad12)*%
X101450000Y-100400000D03*
%TO.P,U1,13,PB1*%
%TO.N,Net-(U1-PB1)*%
X101450000Y-100000000D03*
%TO.P,U1,14,PB0*%
%TO.N,Net-(U1-PB0)*%
X101450000Y-99600000D03*
D23*
%TO.P,U1,15,PC0*%
%TO.N,unconnected-(U1-PC0-Pad15)*%
X101450000Y-99200000D03*
D24*
%TO.P,U1,16,PC1*%
%TO.N,Net-(D3-A)*%
X100800000Y-98550000D03*
D20*
%TO.P,U1,17,PC2*%
%TO.N,Net-(D2-A)*%
X100400000Y-98550000D03*
%TO.P,U1,18,PC3*%
%TO.N,Net-(D1-A)*%
X100000000Y-98550000D03*
%TO.P,U1,19,~{RESET}/PA0*%
%TO.N,Net-(U1-~{RESET}{slash}PA0)*%
X99600000Y-98550000D03*
D25*
%TO.P,U1,20,PA1*%
%TO.N,Net-(D0-A)*%
X99200000Y-98550000D03*
D26*
%TO.P,U1,21,GND*%
%TO.N,GND*%
X100000000Y-100000000D03*
%TD*%
D15*
%TO.P,D0,1,K*%
%TO.N,Net-(D0-K)*%
X92500000Y-92675000D03*
%TO.P,D0,2,A*%
%TO.N,Net-(D0-A)*%
X92500000Y-94325000D03*
%TD*%
D13*
%TO.P,R12,1*%
%TO.N,VCC*%
X105325000Y-102950000D03*
%TO.P,R12,2*%
%TO.N,Net-(U1-PB1)*%
X103675000Y-102950000D03*
%TD*%
D11*
%TO.P,D6,1,K*%
%TO.N,Net-(D6-K)*%
X98000000Y-107325000D03*
%TO.P,D6,2,A*%
%TO.N,Net-(D6-A)*%
X98000000Y-105675000D03*
%TD*%
D27*
%TO.P,C2,1*%
%TO.N,VCC*%
X106330000Y-100100000D03*
%TO.P,C2,2*%
%TO.N,GND*%
X106970000Y-100100000D03*
%TD*%
D15*
%TO.P,D2,1,K*%
%TO.N,Net-(D2-K)*%
X102500000Y-92675000D03*
%TO.P,D2,2,A*%
%TO.N,Net-(D2-A)*%
X102500000Y-94325000D03*
%TD*%
D11*
%TO.P,D5,1,K*%
%TO.N,Net-(D5-K)*%
X94000000Y-107325000D03*
%TO.P,D5,2,A*%
%TO.N,Net-(D5-A)*%
X94000000Y-105675000D03*
%TD*%
D14*
%TO.P,R2,1*%
%TO.N,Net-(D2-K)*%
X101750000Y-90850000D03*
%TO.P,R2,2*%
%TO.N,GND*%
X101750000Y-89200000D03*
%TD*%
D12*
%TO.P,R4,1*%
%TO.N,Net-(D4-K)*%
X91500000Y-108925000D03*
%TO.P,R4,2*%
%TO.N,GND*%
X91500000Y-110575000D03*
%TD*%
D28*
%TO.P,C1,1*%
%TO.N,VCC*%
X97200000Y-100520000D03*
%TO.P,C1,2*%
%TO.N,GND*%
X97200000Y-99880000D03*
%TD*%
D11*
%TO.P,D7,1,K*%
%TO.N,Net-(D7-K)*%
X102000000Y-107325000D03*
%TO.P,D7,2,A*%
%TO.N,Net-(D7-A)*%
X102000000Y-105675000D03*
%TD*%
D29*
%TO.P,U2,1,CLKOUT*%
%TO.N,unconnected-(U2-CLKOUT-Pad1)*%
X103900000Y-98650000D03*
%TO.P,U2,2,~{INT}*%
%TO.N,unconnected-(U2-~{INT}-Pad2)*%
X103900000Y-99550000D03*
%TO.P,U2,3,SCL*%
%TO.N,Net-(U1-PB0)*%
X103900000Y-100450000D03*
%TO.P,U2,4,SDA*%
%TO.N,Net-(U1-PB1)*%
X103900000Y-101350000D03*
%TO.P,U2,5,VSS*%
%TO.N,GND*%
X105100000Y-101350000D03*
%TO.P,U2,6,VBACKUP*%
%TO.N,Net-(BackupBT1-+)*%
X105100000Y-100450000D03*
%TO.P,U2,7,VDD*%
%TO.N,VCC*%
X105100000Y-99550000D03*
%TO.P,U2,8,EVI*%
%TO.N,Net-(U2-EVI)*%
X105100000Y-98650000D03*
%TD*%
D27*
%TO.P,R10,1*%
%TO.N,Net-(U2-EVI)*%
X106330000Y-98475000D03*
%TO.P,R10,2*%
%TO.N,GND*%
X106970000Y-98475000D03*
%TD*%
D11*
%TO.P,D9,1,K*%
%TO.N,Net-(D9-K)*%
X110000000Y-107325000D03*
%TO.P,D9,2,A*%
%TO.N,Net-(D9-A)*%
X110000000Y-105675000D03*
%TD*%
D30*
%TO.P,C3,1*%
%TO.N,GND*%
X108970000Y-100100000D03*
%TO.P,C3,2*%
%TO.N,Net-(BackupBT1-+)*%
X108330000Y-100100000D03*
%TD*%
D15*
%TO.P,D3,1,K*%
%TO.N,Net-(D3-K)*%
X107500000Y-92675000D03*
%TO.P,D3,2,A*%
%TO.N,Net-(D3-A)*%
X107500000Y-94325000D03*
%TD*%
D12*
%TO.P,R8,1*%
%TO.N,Net-(D8-K)*%
X105250000Y-108925000D03*
%TO.P,R8,2*%
%TO.N,GND*%
X105250000Y-110575000D03*
%TD*%
D14*
%TO.P,R0,1*%
%TO.N,Net-(D0-K)*%
X94250000Y-90850000D03*
%TO.P,R0,2*%
%TO.N,GND*%
X94250000Y-89200000D03*
%TD*%
D11*
%TO.P,D8,1,K*%
%TO.N,Net-(D8-K)*%
X106000000Y-107325000D03*
%TO.P,D8,2,A*%
%TO.N,Net-(D8-A)*%
X106000000Y-105675000D03*
%TD*%
D31*
%TO.P,S3,1,In*%
%TO.N,Net-(S3-In)*%
X86700000Y-104930000D03*
%TD*%
%TO.P,GND,1,1*%
%TO.N,GND*%
X113300000Y-104930000D03*
%TD*%
%TO.P,UPDI,1,1*%
%TO.N,Net-(U1-~{RESET}{slash}PA0)*%
X113300000Y-99850000D03*
%TD*%
%TO.P,S1,1,In*%
%TO.N,Net-(S1-In)*%
X86700000Y-99850000D03*
%TD*%
D32*
%TO.P,GS2,1,In*%
%TO.N,GND*%
X106875000Y-111650000D03*
%TD*%
%TO.P,GS1,1,In*%
%TO.N,GND*%
X93125000Y-111650000D03*
%TD*%
D31*
%TO.P,VCC,1,1*%
%TO.N,VCC*%
X113300000Y-102390000D03*
%TD*%
%TO.P,S2,1,In*%
%TO.N,Net-(S2-In)*%
X86700000Y-102390000D03*
%TD*%
D33*
%TO.N,VCC*%
X111725000Y-91475000D03*
X88250000Y-99550000D03*
X111750000Y-99550000D03*
X88275000Y-91475000D03*
%TO.N,GND*%
X100000000Y-100000000D03*
X104750000Y-88500000D03*
X107650000Y-100100000D03*
X106875000Y-109750000D03*
X109650000Y-100100000D03*
X107650000Y-98650000D03*
X93125000Y-109750000D03*
X100000000Y-112925000D03*
X95250000Y-88500000D03*
X107650000Y-101350000D03*
X92800000Y-99050000D03*
X100000000Y-88000000D03*
%TO.N,Net-(BackupBT1-+)*%
X95050000Y-111950000D03*
X111100000Y-101275000D03*
X105000000Y-112000000D03*
X111100000Y-102675000D03*
%TO.N,Net-(S1-In)*%
X88800000Y-100950000D03*
%TO.N,Net-(S2-In)*%
X89350000Y-101400000D03*
D34*
%TO.N,Net-(S3-In)*%
X95525000Y-104900000D03*
%TD*%
D10*
%TO.N,VCC*%
X97090000Y-101350000D02*
X97690000Y-100750000D01*
X106100000Y-99550000D02*
X111750000Y-99550000D01*
X97490000Y-100400000D02*
X97410000Y-100480000D01*
X97900000Y-100400000D02*
X97490000Y-100400000D01*
X105100000Y-99550000D02*
X106100000Y-99550000D01*
X108200000Y-99275000D02*
X108200000Y-98225000D01*
D35*
X97275000Y-100675000D02*
X97280000Y-100675000D01*
D10*
X111750000Y-101450000D02*
X111750000Y-99550000D01*
X111225000Y-101975000D02*
X111750000Y-101450000D01*
X106300000Y-101975000D02*
X111225000Y-101975000D01*
X88900000Y-101950000D02*
X89700000Y-101950000D01*
X107950000Y-97975000D02*
X105950000Y-97975000D01*
X108200000Y-98225000D02*
X107950000Y-97975000D01*
X108475000Y-99550000D02*
X108200000Y-99275000D01*
X90300000Y-101350000D02*
X97090000Y-101350000D01*
X97700000Y-100600000D02*
X97900000Y-100400000D01*
X98550000Y-100400000D02*
X97900000Y-100400000D01*
X105950000Y-97975000D02*
X105325000Y-97350000D01*
X89700000Y-101950000D02*
X90300000Y-101350000D01*
X105325000Y-102950000D02*
X106300000Y-101975000D01*
X112690000Y-102390000D02*
X111750000Y-101450000D01*
X105325000Y-97350000D02*
X105325000Y-97050000D01*
X106330000Y-99780000D02*
X106100000Y-99550000D01*
X88250000Y-99550000D02*
X88250000Y-101300000D01*
X111750000Y-99550000D02*
X108475000Y-99550000D01*
X97410000Y-100480000D02*
X97240000Y-100480000D01*
X105222500Y-97247500D02*
X105222500Y-97050000D01*
X97700000Y-100750000D02*
X97700000Y-100600000D01*
X97690000Y-100750000D02*
X97700000Y-100750000D01*
X113300000Y-102390000D02*
X112690000Y-102390000D01*
X88250000Y-101300000D02*
X88900000Y-101950000D01*
X106330000Y-100100000D02*
X106330000Y-99780000D01*
X97240000Y-100480000D02*
X97200000Y-100520000D01*
%TO.N,GND*%
X107700000Y-110575000D02*
X106875000Y-109750000D01*
X98550000Y-100000000D02*
X97940000Y-100000000D01*
X97399999Y-99880000D02*
X97200000Y-99880000D01*
X91500000Y-110575000D02*
X92300000Y-110575000D01*
X105050000Y-88500000D02*
X104750000Y-88500000D01*
X92800000Y-99050000D02*
X92790000Y-99060000D01*
X107650000Y-101350000D02*
X105100000Y-101350000D01*
X93125000Y-109750000D02*
X93950000Y-110575000D01*
X94950000Y-88500000D02*
X95250000Y-88500000D01*
X94250000Y-89200000D02*
X94950000Y-88500000D01*
X101750000Y-89200000D02*
X101750000Y-88250000D01*
X106970000Y-100100000D02*
X107650000Y-100100000D01*
X108500000Y-110575000D02*
X107700000Y-110575000D01*
X107145000Y-98650000D02*
X106970000Y-98475000D01*
X98250000Y-89200000D02*
X98250000Y-88250000D01*
X101625000Y-112500000D02*
X101200000Y-112925000D01*
X101200000Y-112925000D02*
X100000000Y-112925000D01*
X107020000Y-100100000D02*
X106970000Y-100050000D01*
X98500000Y-88000000D02*
X100000000Y-88000000D01*
X98375000Y-112500000D02*
X98800000Y-112925000D01*
X96650000Y-99050000D02*
X92800000Y-99050000D01*
X101500000Y-88000000D02*
X100000000Y-88000000D01*
X92300000Y-110575000D02*
X93125000Y-109750000D01*
X98800000Y-112925000D02*
X100000000Y-112925000D01*
X97600000Y-100000000D02*
X97519999Y-100000000D01*
X107145000Y-98650000D02*
X107650000Y-98650000D01*
X97600000Y-100000000D02*
X96650000Y-99050000D01*
X93950000Y-110575000D02*
X94750000Y-110575000D01*
X97940000Y-100000000D02*
X97600000Y-100000000D01*
X101625000Y-110575000D02*
X101625000Y-112500000D01*
X108970000Y-100100000D02*
X109650000Y-100100000D01*
X106050000Y-110575000D02*
X106875000Y-109750000D01*
X105750000Y-89200000D02*
X105050000Y-88500000D01*
X98375000Y-110575000D02*
X98375000Y-112500000D01*
X101750000Y-88250000D02*
X101500000Y-88000000D01*
X105250000Y-110575000D02*
X106050000Y-110575000D01*
X98250000Y-88250000D02*
X98500000Y-88000000D01*
X97519999Y-100000000D02*
X97399999Y-99880000D01*
%TO.N,Net-(D0-K)*%
X92500000Y-92675000D02*
X92500000Y-92600000D01*
X92500000Y-92600000D02*
X94250000Y-90850000D01*
%TO.N,Net-(D1-K)*%
X97500000Y-92675000D02*
X97500000Y-91600000D01*
X97500000Y-91600000D02*
X98250000Y-90850000D01*
%TO.N,Net-(D2-K)*%
X102500000Y-91600000D02*
X101750000Y-90850000D01*
X102500000Y-92675000D02*
X102500000Y-91600000D01*
%TO.N,Net-(D3-K)*%
X107500000Y-92675000D02*
X107500000Y-92600000D01*
X107500000Y-92600000D02*
X105750000Y-90850000D01*
%TO.N,Net-(D4-K)*%
X90000000Y-108475000D02*
X90450000Y-108925000D01*
X90450000Y-108925000D02*
X91500000Y-108925000D01*
X90000000Y-107325000D02*
X90000000Y-108475000D01*
%TO.N,Net-(D5-K)*%
X94000000Y-107325000D02*
X94750000Y-108075000D01*
X94750000Y-108075000D02*
X94750000Y-108925000D01*
%TO.N,Net-(D6-K)*%
X98375000Y-107700000D02*
X98375000Y-108925000D01*
X98000000Y-107325000D02*
X98375000Y-107700000D01*
%TO.N,Net-(D7-K)*%
X102000000Y-107325000D02*
X101625000Y-107700000D01*
X101625000Y-107700000D02*
X101625000Y-108925000D01*
%TO.N,Net-(D8-K)*%
X106000000Y-107325000D02*
X105250000Y-108075000D01*
X105250000Y-108075000D02*
X105250000Y-108925000D01*
%TO.N,Net-(D9-K)*%
X109550000Y-108925000D02*
X108500000Y-108925000D01*
X110000000Y-107325000D02*
X110000000Y-108475000D01*
X110000000Y-108475000D02*
X109550000Y-108925000D01*
%TO.N,Net-(D3-A)*%
X107500000Y-95275000D02*
X107500000Y-94325000D01*
X102850000Y-95700000D02*
X107075000Y-95700000D01*
X102350000Y-96200000D02*
X102850000Y-95700000D01*
X100975000Y-96200000D02*
X102350000Y-96200000D01*
X100800000Y-96375000D02*
X100975000Y-96200000D01*
X100800000Y-98550000D02*
X100800000Y-96375000D01*
X107075000Y-95700000D02*
X107500000Y-95275000D01*
%TO.N,Net-(D6-A)*%
X100000000Y-101450000D02*
X100000000Y-104600000D01*
X100000000Y-104600000D02*
X99700000Y-104900000D01*
X99700000Y-104900000D02*
X98325000Y-104900000D01*
X98000000Y-105225000D02*
X98000000Y-105675000D01*
X98325000Y-104900000D02*
X98000000Y-105225000D01*
%TO.N,Net-(U1-PB1)*%
X102675000Y-101950000D02*
X102675000Y-101350000D01*
X103675000Y-102950000D02*
X102675000Y-101950000D01*
X101450000Y-100000000D02*
X102325000Y-100000000D01*
X102512000Y-100187000D02*
X102512000Y-101187000D01*
X102325000Y-100000000D02*
X102512000Y-100187000D01*
X102512000Y-101187000D02*
X102675000Y-101350000D01*
X102675000Y-101350000D02*
X103900000Y-101350000D01*
%TO.N,Net-(D9-A)*%
X102100000Y-103225000D02*
X102850000Y-103975000D01*
X101825000Y-100800000D02*
X102100000Y-101075000D01*
X101450000Y-100800000D02*
X101825000Y-100800000D01*
X110000000Y-104250000D02*
X110000000Y-105675000D01*
X102100000Y-101075000D02*
X102100000Y-103225000D01*
X102850000Y-103975000D02*
X109725000Y-103975000D01*
X109725000Y-103975000D02*
X110000000Y-104250000D01*
%TO.N,Net-(D2-A)*%
X100400000Y-98550000D02*
X100400000Y-96175000D01*
X100775000Y-95800000D02*
X102175000Y-95800000D01*
X102500000Y-95475000D02*
X102500000Y-94325000D01*
X100400000Y-96175000D02*
X100775000Y-95800000D01*
X102175000Y-95800000D02*
X102500000Y-95475000D01*
%TO.N,Net-(D8-A)*%
X100800000Y-101450000D02*
X100800000Y-103725000D01*
X105700000Y-104500000D02*
X106000000Y-104800000D01*
X101575000Y-104500000D02*
X105700000Y-104500000D01*
X106000000Y-104800000D02*
X106000000Y-105675000D01*
X100800000Y-103725000D02*
X101575000Y-104500000D01*
%TO.N,Net-(D1-A)*%
X100000000Y-96175000D02*
X99625000Y-95800000D01*
X97750000Y-95800000D02*
X97500000Y-95550000D01*
X97500000Y-95550000D02*
X97500000Y-94325000D01*
X99625000Y-95800000D02*
X97750000Y-95800000D01*
X100000000Y-98550000D02*
X100000000Y-96175000D01*
%TO.N,Net-(D0-A)*%
X99050000Y-96600000D02*
X93000000Y-96600000D01*
X93000000Y-96600000D02*
X92500000Y-96100000D01*
X99200000Y-96750000D02*
X99050000Y-96600000D01*
X92500000Y-96100000D02*
X92500000Y-94325000D01*
X99200000Y-98550000D02*
X99200000Y-96750000D01*
%TO.N,Net-(D7-A)*%
X100400000Y-104650000D02*
X100650000Y-104900000D01*
X101700000Y-104900000D02*
X102000000Y-105200000D01*
X102000000Y-105200000D02*
X102000000Y-105675000D01*
X100400000Y-101450000D02*
X100400000Y-104650000D01*
X101800000Y-105475000D02*
X102000000Y-105675000D01*
X100650000Y-104900000D02*
X101700000Y-104900000D01*
%TO.N,Net-(U1-PB0)*%
X102950000Y-100275000D02*
X103125000Y-100450000D01*
X103125000Y-100450000D02*
X103900000Y-100450000D01*
X102950000Y-99750000D02*
X102950000Y-100275000D01*
X102800000Y-99600000D02*
X102950000Y-99750000D01*
X102800000Y-99600000D02*
X102800000Y-97925000D01*
X102800000Y-97925000D02*
X103675000Y-97050000D01*
X101450000Y-99600000D02*
X102800000Y-99600000D01*
%TO.N,Net-(D5-A)*%
X99200000Y-101450000D02*
X99200000Y-101925000D01*
X98850000Y-102275000D02*
X94750000Y-102275000D01*
X99200000Y-101925000D02*
X98850000Y-102275000D01*
X94000000Y-103025000D02*
X94000000Y-105675000D01*
X94750000Y-102275000D02*
X94000000Y-103025000D01*
%TO.N,Net-(D4-A)*%
X90000000Y-102275000D02*
X90000000Y-105675000D01*
X98550000Y-100800000D02*
X97600000Y-101750000D01*
X97600000Y-101750000D02*
X90525000Y-101750000D01*
X90525000Y-101750000D02*
X90000000Y-102275000D01*
%TO.N,Net-(U2-EVI)*%
X105100000Y-98650000D02*
X106155000Y-98650000D01*
X106155000Y-98650000D02*
X106330000Y-98475000D01*
%TO.N,Net-(BackupBT1-+)*%
X95051262Y-113712129D02*
X95051262Y-111951262D01*
X105000000Y-112000000D02*
X105000000Y-113650000D01*
X105400000Y-100750000D02*
X106625000Y-100750000D01*
X105100000Y-100450000D02*
X105400000Y-100750000D01*
X106625000Y-100750000D02*
X108000000Y-100750000D01*
X95051262Y-111951262D02*
X95050000Y-111950000D01*
X110575000Y-100750000D02*
X111100000Y-101275000D01*
X108000000Y-100750000D02*
X110575000Y-100750000D01*
X111100000Y-102675000D02*
X111100000Y-109450000D01*
X108330000Y-100420000D02*
X108000000Y-100750000D01*
X108330000Y-100100000D02*
X108330000Y-100420000D01*
%TO.N,Net-(S1-In)*%
X91800000Y-100200000D02*
X91800000Y-98684314D01*
X88800000Y-100950000D02*
X89250000Y-100500000D01*
X98050000Y-99200000D02*
X98550000Y-99200000D01*
X89250000Y-100500000D02*
X91500000Y-100500000D01*
X92484314Y-98000000D02*
X96850000Y-98000000D01*
X96850000Y-98000000D02*
X98050000Y-99200000D01*
X91800000Y-98684314D02*
X92484314Y-98000000D01*
X91500000Y-100500000D02*
X91800000Y-100200000D01*
%TO.N,Net-(S2-In)*%
X92200000Y-100500000D02*
X91800000Y-100900000D01*
X89800000Y-100900000D02*
X89350000Y-101350000D01*
X97800000Y-99600000D02*
X96600000Y-98400000D01*
X91800000Y-100900000D02*
X89800000Y-100900000D01*
X98550000Y-99600000D02*
X97800000Y-99600000D01*
X92650000Y-98400000D02*
X92200000Y-98850000D01*
X92200000Y-98850000D02*
X92200000Y-100500000D01*
X89350000Y-101350000D02*
X89350000Y-101400000D01*
X96600000Y-98400000D02*
X92650000Y-98400000D01*
%TO.N,Net-(S3-In)*%
X99475000Y-104500000D02*
X95925000Y-104500000D01*
X99600000Y-104375000D02*
X99475000Y-104500000D01*
X95925000Y-104500000D02*
X95525000Y-104900000D01*
X99600000Y-101450000D02*
X99600000Y-104375000D01*
%TD*%
M02*
